<svg width="132" height="43" viewBox="0 0 132 43" fill="none" xmlns="http://www.w3.org/2000/svg">
<path d="M11.6337 0V0.18557L10.8629 0.371138V8.59327L11.6337 8.77884V8.96441H7.97946V8.77884L8.7503 8.59327V1.58447L5.7241 9.09288H5.33866L1.41317 1.58447V8.39343L2.44093 8.77884V8.96441H0V8.77884L1.02777 8.39343V0.371138L0.256931 0.18557V0H1.85567C2.09834 0 2.31246 0.0285483 2.48376 0.0856465C2.65505 0.142745 2.82637 0.214117 2.95484 0.314039C3.09758 0.413961 3.21178 0.528159 3.3117 0.65663C3.41162 0.785101 3.49728 0.94212 3.58292 1.09914L6.38072 6.45209L8.5219 1.09914C8.59327 0.913571 8.66466 0.756551 8.76459 0.62808C8.85023 0.49961 8.9644 0.385414 9.09287 0.285492C9.22134 0.18557 9.37839 0.114195 9.56396 0.0713716C9.74953 0.028548 9.9779 0 10.2634 0H11.6337Z" fill="#292F36"/>
<path d="M16.202 2.38391C16.7302 2.38391 17.2155 2.45528 17.6295 2.6123C18.0434 2.76932 18.4003 2.99771 18.7001 3.28321C18.9998 3.58297 19.214 3.93983 19.371 4.3538C19.528 4.76776 19.5994 5.25309 19.5994 5.78125C19.5994 6.30941 19.528 6.79474 19.371 7.2087C19.214 7.62266 18.9856 7.97953 18.7001 8.27929C18.4003 8.57906 18.0434 8.79318 17.6295 8.9502C17.2155 9.10722 16.7302 9.17859 16.202 9.17859C15.6739 9.17859 15.1885 9.10722 14.7746 8.9502C14.3606 8.79318 14.0038 8.56478 13.704 8.27929C13.4042 7.97953 13.1901 7.62266 13.0331 7.2087C12.8761 6.79474 12.8047 6.30941 12.8047 5.78125C12.8047 5.25309 12.8761 4.76776 13.0331 4.3538C13.1901 3.93983 13.4185 3.58297 13.704 3.28321C14.0038 2.98344 14.3606 2.76932 14.7746 2.6123C15.1885 2.45528 15.6596 2.38391 16.202 2.38391ZM16.202 8.93592C16.3448 8.93592 16.4875 8.8931 16.6445 8.79318C16.7873 8.69326 16.9157 8.53623 17.0299 8.29357C17.1441 8.0509 17.2441 7.73686 17.3154 7.33717C17.3868 6.92321 17.4296 6.40933 17.4296 5.79552C17.4296 5.16744 17.3868 4.65356 17.3154 4.25387C17.2441 3.85419 17.1441 3.52587 17.0299 3.29748C16.9157 3.06909 16.7873 2.8978 16.6445 2.79787C16.5018 2.69795 16.3591 2.65513 16.202 2.65513C16.0593 2.65513 15.9165 2.69795 15.7595 2.79787C15.6168 2.8978 15.4883 3.05481 15.3741 3.29748C15.2599 3.54015 15.16 3.85419 15.0886 4.25387C15.0172 4.66784 14.9744 5.18172 14.9744 5.79552C14.9744 6.4236 15.0172 6.93749 15.0886 7.33717C15.16 7.73686 15.2599 8.06518 15.3741 8.29357C15.4883 8.52196 15.6168 8.69326 15.7595 8.79318C15.9023 8.87882 16.045 8.93592 16.202 8.93592Z" fill="#292F36"/>
<path d="M25.836 0C26.6068 0 26.9922 0.385412 26.9922 1.15624V8.60755L27.763 8.79311V8.97868H26.6068C26.2928 8.97868 26.0501 8.93586 25.8645 8.83594C25.6789 8.73602 25.5219 8.62182 25.422 8.50762C25.2935 8.36488 25.1936 8.19358 25.1365 8.02229C25.0223 8.25068 24.8796 8.43625 24.7083 8.60755C24.5655 8.75029 24.3657 8.87876 24.123 9.00723C23.8803 9.1357 23.5948 9.1928 23.2665 9.1928C22.8954 9.1928 22.5528 9.12143 22.2387 8.97868C21.9104 8.83594 21.6392 8.62182 21.4108 8.33633C21.1825 8.05084 20.9826 7.69397 20.8542 7.28001C20.7114 6.85178 20.6543 6.36644 20.6543 5.79546C20.6543 5.22448 20.7257 4.73915 20.8542 4.31091C20.9969 3.88267 21.1824 3.54009 21.4394 3.2546C21.682 2.9691 21.9818 2.75499 22.3244 2.61224C22.667 2.46949 23.0524 2.39812 23.4807 2.39812C23.7091 2.39812 23.9089 2.42667 24.0945 2.46949C24.28 2.52659 24.437 2.58369 24.5655 2.65506C24.7225 2.72644 24.851 2.81208 24.9652 2.91201V0.413963L24.1944 0.228392V0.0428246H25.836V0ZM24.9367 3.28314C24.8367 3.18322 24.7511 3.09758 24.6369 3.0262C24.537 2.95483 24.4371 2.89773 24.3229 2.84063C24.2087 2.78353 24.0945 2.76926 23.966 2.76926C23.809 2.76926 23.6519 2.81208 23.5092 2.89773C23.3665 2.98338 23.2522 3.12612 23.1381 3.34024C23.0381 3.55436 22.9525 3.8684 22.8954 4.25381C22.8383 4.6535 22.8098 5.15311 22.8098 5.78119C22.8098 6.39499 22.8383 6.88033 22.8954 7.26574C22.9525 7.65115 23.0239 7.95092 23.1238 8.16503C23.2095 8.37915 23.3094 8.53617 23.4378 8.60755C23.552 8.67892 23.6662 8.72174 23.7804 8.72174C23.9803 8.72174 24.1515 8.66464 24.2943 8.56472C24.437 8.4648 24.5512 8.33633 24.6511 8.20786C24.7653 8.05084 24.8653 7.87954 24.9509 7.69397V3.28314H24.9367Z" fill="#292F36"/>
<path d="M32.0605 9.19287C30.9614 9.19287 30.1049 8.89311 29.5054 8.29358C28.8916 7.69404 28.5918 6.85185 28.5918 5.79553C28.5918 5.26737 28.6632 4.78204 28.8202 4.36808C28.9772 3.95412 29.1913 3.59725 29.4626 3.29749C29.7338 2.99772 30.0621 2.78361 30.4618 2.62659C30.8472 2.46957 31.2754 2.39819 31.7465 2.39819C32.2318 2.39819 32.6601 2.46957 33.0312 2.59804C33.4166 2.74078 33.7306 2.92635 34.0019 3.15474C34.2731 3.38314 34.4729 3.65435 34.6157 3.96839C34.7584 4.28243 34.8298 4.61075 34.8298 4.96761C34.8298 5.0818 34.8298 5.196 34.8155 5.28165C34.8012 5.3673 34.787 5.45294 34.7727 5.52432C34.7441 5.60996 34.7298 5.68134 34.7013 5.73843C34.3302 5.80981 33.9305 5.88118 33.5022 5.924C33.1454 5.9811 32.7314 6.02392 32.2604 6.05247C31.7893 6.08102 31.304 6.10957 30.7901 6.10957C30.7901 6.63773 30.8329 7.08024 30.9043 7.43711C30.9756 7.79397 31.0898 8.07946 31.2183 8.2793C31.3611 8.49342 31.5181 8.63617 31.7036 8.72181C31.8892 8.80746 32.1034 8.85028 32.3175 8.85028C32.5744 8.85028 32.8171 8.80746 33.0454 8.70754C33.2738 8.60762 33.4737 8.49342 33.6307 8.3364C33.802 8.17938 33.9305 7.99381 34.0304 7.79397C34.1303 7.59413 34.1731 7.39428 34.1731 7.18016H34.4872C34.4872 7.4371 34.4301 7.67977 34.3159 7.92244C34.2017 8.1651 34.0304 8.37922 33.8163 8.56479C33.6022 8.75036 33.3452 8.89311 33.0454 9.0073C32.76 9.13577 32.4316 9.19287 32.0605 9.19287ZM30.7758 5.78126C31.0613 5.78126 31.3182 5.78126 31.5466 5.76698C31.775 5.75271 31.9606 5.73843 32.1176 5.72416C32.3032 5.70989 32.4459 5.68133 32.5744 5.66706C32.5887 5.58141 32.6172 5.48149 32.6315 5.38157C32.6458 5.28165 32.6601 5.18173 32.6743 5.06753C32.6886 4.95333 32.6886 4.82487 32.6886 4.69639C32.6886 4.31098 32.66 3.98267 32.6029 3.72573C32.5458 3.46878 32.4745 3.25466 32.3745 3.08337C32.2889 2.92635 32.189 2.79788 32.0605 2.74078C31.932 2.68368 31.8321 2.64086 31.7179 2.64086C31.6037 2.64086 31.4895 2.68368 31.3753 2.76933C31.2612 2.85498 31.1612 3.012 31.0613 3.22612C30.9757 3.45451 30.89 3.76855 30.8329 4.18251C30.7758 4.59647 30.7758 5.12463 30.7758 5.78126Z" fill="#292F36"/>
<path d="M40.2265 2.82637C39.9695 2.82637 39.7412 2.88347 39.5413 2.98339C39.3415 3.08331 39.1702 3.21178 39.0274 3.34025C38.8704 3.49727 38.7419 3.66857 38.6134 3.85414V8.60756L39.3843 8.79312V8.97869H35.7871V8.79312L36.5579 8.60756V2.95484L35.7871 2.76927V2.5837H36.9433C37.2431 2.5837 37.4858 2.6408 37.6856 2.74072C37.8712 2.84064 38.0282 2.95484 38.1424 3.06904C38.2709 3.21178 38.3708 3.3688 38.4279 3.54009C38.5564 3.35453 38.7134 3.18323 38.8989 3.02621C39.056 2.89774 39.2558 2.78355 39.4985 2.66935C39.7412 2.55515 40.0124 2.51233 40.3407 2.51233C40.7975 2.51233 41.1401 2.62652 41.3685 2.82637C41.5969 3.04049 41.6967 3.34025 41.6967 3.72567C41.6967 4.01116 41.6111 4.25382 41.4398 4.42512C41.2685 4.59641 41.0259 4.68206 40.7404 4.68206C40.669 4.68206 40.6119 4.68206 40.5405 4.68206C40.4691 4.68206 40.4263 4.66778 40.3835 4.66778C40.3264 4.65351 40.2693 4.65351 40.2265 4.62496V2.82637Z" fill="#292F36"/>
<path d="M47.2208 4.49653C47.2208 4.21104 47.1923 3.9541 47.1352 3.73999C47.0781 3.52587 47.0067 3.35457 46.9068 3.2261C46.8212 3.08336 46.7212 2.98343 46.5928 2.92633C46.4786 2.86924 46.3643 2.82641 46.2501 2.82641C46.0503 2.82641 45.879 2.88351 45.7363 2.98343C45.5935 3.08336 45.4651 3.21183 45.3794 3.3403C45.2652 3.49732 45.1796 3.66861 45.0939 3.85418V8.6076L45.8647 8.79317V8.97874H42.2676V8.79317L43.0384 8.6076V2.95488L42.2676 2.76932V2.58375H43.4238C43.7236 2.58375 43.9662 2.64085 44.1661 2.74077C44.3516 2.84069 44.5087 2.95488 44.6229 3.06908C44.7513 3.21183 44.8512 3.36885 44.9083 3.54014C45.0225 3.32602 45.1653 3.12618 45.3366 2.95488C45.4793 2.81214 45.6792 2.68367 45.9076 2.5552C46.136 2.42673 46.4357 2.36963 46.7783 2.36963C47.1494 2.36963 47.4921 2.42673 47.7918 2.5552C48.1059 2.6694 48.3628 2.84069 48.5769 3.02626C48.791 3.2261 48.9623 3.44022 49.0908 3.69716C49.2193 3.9541 49.2763 4.21104 49.2763 4.48226V8.59333L50.0472 8.77889V8.96447H48.3771C47.6063 8.96447 47.2208 8.57905 47.2208 7.80823V4.49653Z" fill="#292F36"/>
<path d="M1.35547 18.0002V17.472H11.2762V18.0002L9.19217 18.5284V29.3056H16.672V18.5284L14.5879 18.0002V17.472H24.5088V18.0002L22.4247 18.5284V40.7966L24.5088 41.3248V41.853H14.5879V41.3105L16.672 40.7824V30.1764H9.19217V40.7824L11.2762 41.3105V41.8387H1.35547V41.3105L3.43954 40.7824V18.5141L1.35547 18.0002Z" fill="#292F36"/>
<path d="M36.8424 23.9099C38.2842 23.9099 39.5689 24.124 40.7108 24.5379C41.8528 24.9519 42.8092 25.5657 43.6085 26.3651C44.4079 27.1644 45.0217 28.1351 45.4357 29.2771C45.8496 30.419 46.0638 31.7037 46.0638 33.1455C46.0638 34.5872 45.8496 35.8719 45.4357 37.0139C45.0217 38.1558 44.4079 39.1122 43.6085 39.9116C42.8092 40.711 41.8385 41.3248 40.7108 41.7387C39.5689 42.1527 38.2842 42.3668 36.8424 42.3668C35.4007 42.3668 34.116 42.1527 32.974 41.7387C31.8321 41.3248 30.8757 40.711 30.0763 39.9116C29.2769 39.1122 28.6631 38.1416 28.2492 37.0139C27.8352 35.8719 27.6211 34.5872 27.6211 33.1455C27.6211 31.7037 27.8352 30.419 28.2492 29.2771C28.6631 28.1351 29.2769 27.1787 30.0763 26.3651C30.8757 25.5514 31.8464 24.9519 32.974 24.5379C34.116 24.124 35.4007 23.9099 36.8424 23.9099ZM36.8424 41.6531C37.2421 41.6531 37.6276 41.5246 38.0272 41.2677C38.4269 41.0107 38.7695 40.5682 39.0835 39.9259C39.3976 39.2835 39.6545 38.4128 39.8544 37.3136C40.0542 36.2145 40.1541 34.8156 40.1541 33.1169C40.1541 31.4183 40.0542 30.0193 39.8544 28.9202C39.6545 27.8211 39.3976 26.9503 39.0835 26.308C38.7695 25.6656 38.4127 25.2231 38.0272 24.9662C37.6418 24.7092 37.2421 24.5808 36.8424 24.5808C36.4427 24.5808 36.0574 24.7092 35.6577 24.9662C35.258 25.2231 34.9154 25.6656 34.6013 26.308C34.2873 26.9503 34.0304 27.8211 33.8305 28.9202C33.6307 30.0193 33.5307 31.4183 33.5307 33.1169C33.5307 34.8156 33.6307 36.2145 33.8305 37.3136C34.0304 38.4128 34.2873 39.2835 34.6013 39.9259C34.9154 40.5682 35.2723 41.0107 35.6577 41.2677C36.0574 41.5246 36.4427 41.6531 36.8424 41.6531Z" fill="#292F36"/>
<path d="M72.1443 29.6482C72.1443 28.8203 72.073 28.1065 71.9302 27.5498C71.7875 26.9931 71.6162 26.5221 71.3878 26.1652C71.1594 25.8084 70.9167 25.5514 70.6598 25.3801C70.3885 25.2231 70.1316 25.1374 69.8747 25.1374C69.4322 25.1374 69.0467 25.2802 68.7042 25.5657C68.3616 25.8512 68.0761 26.1795 67.8191 26.5221C67.5479 26.936 67.291 27.4071 67.0911 27.9067V40.7823L69.1895 41.3105V41.8387H59.4542V41.3105L61.5384 40.7823V29.6482C61.5384 28.8203 61.4669 28.1065 61.3242 27.5498C61.1815 26.9931 61.0102 26.5221 60.7818 26.1652C60.5534 25.8084 60.3107 25.5514 60.0538 25.3801C59.7826 25.2231 59.5256 25.1374 59.2687 25.1374C58.8262 25.1374 58.4408 25.2802 58.0982 25.5657C57.7556 25.8512 57.4701 26.1795 57.2131 26.5221C56.9276 26.936 56.685 27.4071 56.4852 27.9067V40.7823L58.5692 41.3105V41.8387H48.834V41.3105L50.9181 40.7823V25.48L48.834 24.9519V24.4237H51.9601C52.7738 24.4237 53.4447 24.5665 53.9585 24.8377C54.4867 25.1089 54.8864 25.4229 55.2005 25.737C55.543 26.1367 55.8 26.5649 55.9713 27.0217C56.271 26.4364 56.6422 25.9225 57.0847 25.4515C57.4844 25.0518 57.9697 24.6949 58.5407 24.3666C59.126 24.0383 59.8254 23.8813 60.6676 23.8813C62.0522 23.8813 63.2655 24.1953 64.2648 24.8091C65.2782 25.4229 66.0491 26.2223 66.5773 27.193C66.877 26.5934 67.2482 26.051 67.6907 25.5514C68.0904 25.1374 68.5757 24.752 69.1467 24.4094C69.7319 24.0669 70.4314 23.8813 71.2736 23.8813C72.2299 23.8813 73.0864 24.0383 73.8858 24.3381C74.6709 24.6378 75.3561 25.0518 75.9271 25.58C76.498 26.1081 76.9405 26.7076 77.2546 27.4071C77.5686 28.1066 77.7257 28.8488 77.7257 29.6339V40.7681L79.8097 41.2962V41.8244H75.2847C73.2006 41.8244 72.1586 40.7823 72.1586 38.6983V29.6482H72.1443Z" fill="#292F36"/>
<path d="M91.2852 42.3525C88.3161 42.3525 86.0037 41.5389 84.3621 39.8973C82.7205 38.2557 81.8926 36.0146 81.8926 33.1312C81.8926 31.6895 82.1067 30.4048 82.5207 29.2628C82.9346 28.1208 83.5199 27.1644 84.2622 26.3508C85.0044 25.5514 85.9037 24.9376 86.9601 24.5236C88.0164 24.1097 89.1726 23.8956 90.4145 23.8956C91.7135 23.8956 92.884 24.0811 93.9118 24.4523C94.9395 24.8234 95.8245 25.323 96.5383 25.9511C97.252 26.5792 97.8087 27.3215 98.1941 28.1637C98.5795 29.0058 98.7651 29.9051 98.7651 30.8615C98.7651 31.1899 98.7508 31.4753 98.708 31.718C98.6652 31.9607 98.6366 32.1748 98.5795 32.3604C98.5081 32.5888 98.451 32.7886 98.4082 32.9456C97.3805 33.1597 96.3099 33.331 95.1679 33.4738C94.1973 33.6165 93.0695 33.7307 91.7991 33.8449C90.5287 33.9448 89.1869 34.0019 87.8023 34.0019C87.8023 35.4437 87.9022 36.6427 88.1163 37.5991C88.3304 38.5555 88.6159 39.3263 88.987 39.8973C89.3582 40.4683 89.8007 40.868 90.3145 41.1107C90.8284 41.3533 91.3852 41.4818 91.9847 41.4818C92.6841 41.4818 93.3408 41.3533 93.9546 41.0964C94.5684 40.8394 95.0965 40.4969 95.5533 40.0686C96.0101 39.6404 96.367 39.155 96.6382 38.6126C96.9094 38.0702 97.0379 37.5135 97.0379 36.9568H97.9086C97.9086 37.6562 97.7516 38.3271 97.4376 38.9695C97.1235 39.6261 96.681 40.1971 96.0958 40.6967C95.5105 41.1963 94.8253 41.596 94.0117 41.8958C93.1838 42.1955 92.2702 42.3525 91.2852 42.3525ZM87.8023 33.1312C88.5874 33.1312 89.2868 33.1169 89.8863 33.0741C90.4859 33.0313 90.9998 33.0027 91.4137 32.9599C91.899 32.9171 92.313 32.86 92.6699 32.7886C92.7127 32.5602 92.7698 32.3033 92.8412 32.0178C92.884 31.7608 92.9268 31.4753 92.9553 31.1613C92.9839 30.8473 93.0125 30.5189 93.0125 30.1764C93.0125 29.1343 92.9268 28.2636 92.7698 27.5498C92.6127 26.8361 92.3986 26.2651 92.156 25.8226C91.9133 25.3801 91.6278 25.0661 91.3281 24.8805C91.014 24.6949 90.7 24.595 90.4002 24.595C90.1004 24.595 89.7864 24.7092 89.4724 24.9233C89.1583 25.1517 88.8871 25.5657 88.6444 26.1795C88.4018 26.7933 88.2019 27.664 88.0307 28.7775C87.8879 29.8909 87.8023 31.3469 87.8023 33.1312Z" fill="#292F36"/>
<path d="M115.853 41.4818V27.3643L103.377 17.4863V41.4818H115.853Z" fill="#292F36"/>
<path d="M131.282 41.4818V27.3643L119.006 17.4863V41.4818H131.282Z" fill="#292F36"/>
</svg>
