<svg width="103" height="103" viewBox="0 0 103 103" fill="none" xmlns="http://www.w3.org/2000/svg">
<path d="M51.1591 101.606C79.0198 101.606 101.605 79.0206 101.605 51.16C101.605 23.2993 79.0198 0.713745 51.1591 0.713745C23.2984 0.713745 0.712891 23.2993 0.712891 51.16C0.712891 79.0206 23.2984 101.606 51.1591 101.606Z" fill="white"/>
<path d="M51.1599 102.32C22.9535 102.32 0 79.3664 0 51.1599C0 22.9535 22.9535 0 51.1599 0C79.3664 0 102.32 22.9535 102.32 51.1599C102.32 79.3664 79.3664 102.32 51.1599 102.32ZM51.1599 1.42745C23.7386 1.42745 1.42745 23.7386 1.42745 51.1599C1.42745 78.5813 23.7386 100.892 51.1599 100.892C78.5813 100.892 100.892 78.5813 100.892 51.1599C100.892 23.7386 78.5813 1.42745 51.1599 1.42745Z" fill="#292F36"/>
<path d="M58.3539 5.83827C58.6964 5.86682 58.9962 5.88109 59.2389 5.88109L59.2103 6.10949C58.8106 6.16658 58.468 6.46635 58.1968 7.03733L54.7995 13.832L54.6996 13.8177L54.6139 13.8035L52.4585 6.22368C52.3157 5.72407 52.0731 5.45286 51.7305 5.41003L51.759 5.18164C52.0731 5.23874 52.487 5.28156 53.0009 5.33866C53.6718 5.39576 54.1714 5.43858 54.4997 5.43858L54.4712 5.66697C54.1714 5.6527 53.9573 5.66697 53.8288 5.7098C53.7004 5.75262 53.629 5.86682 53.6147 6.00956C53.6004 6.13803 53.629 6.3236 53.7004 6.56627L55.2848 12.3617L57.6401 7.62259C57.84 7.23717 57.9399 6.92313 57.9684 6.69474C57.997 6.45207 57.9256 6.26651 57.7686 6.13803C57.6116 6.00956 57.3546 5.93819 57.012 5.89537L57.0406 5.66697C57.4546 5.73835 57.8971 5.79545 58.3539 5.83827Z" fill="#292F36"/>
<path d="M67.9459 8.85028C67.8032 8.85028 67.689 8.90737 67.6033 9.02157C67.5177 9.13577 67.4178 9.32134 67.3178 9.59255L65.2766 15.0169C65.1766 15.2881 65.1195 15.5022 65.1195 15.645C65.1195 15.7877 65.1624 15.9019 65.2623 15.9875C65.3622 16.0732 65.5478 16.1731 65.8047 16.2873L65.7191 16.5014C65.3908 16.3587 64.934 16.1731 64.3487 15.9447C63.7206 15.7021 63.2496 15.545 62.9355 15.4451L63.0212 15.231C63.2924 15.3166 63.4923 15.3595 63.6207 15.3595C63.7492 15.3595 63.8777 15.3024 63.9633 15.1882C64.049 15.074 64.1489 14.8884 64.2488 14.6172L66.2901 9.19286C66.39 8.92165 66.4471 8.70753 66.4471 8.56479C66.4471 8.42204 66.4043 8.30784 66.3043 8.2222C66.2044 8.13655 66.0188 8.03663 65.7619 7.92243L65.8476 7.70831C66.1473 7.83678 66.6041 8.02235 67.2322 8.26502C67.8174 8.49341 68.2885 8.65043 68.6311 8.75035L68.5454 8.96447C68.2885 8.87883 68.0887 8.836 67.9459 8.85028Z" fill="#292F36"/>
<path d="M80.6505 16.4014C80.5078 16.3729 80.3651 16.4157 80.2366 16.5014C80.1081 16.587 79.9511 16.7583 79.7798 17.001L75.6402 22.6109L75.4261 22.4538L75.9828 13.4323L72.3142 18.3999C72.1429 18.6425 72.0287 18.8424 71.9716 18.9994C71.9145 19.1564 71.9431 19.2992 72.0145 19.4419C72.0858 19.5847 72.2571 19.7417 72.4998 19.9415L72.357 20.1271C72.1429 19.9415 71.8289 19.6989 71.4149 19.3848C71.0438 19.1136 70.744 18.8995 70.5156 18.771L70.6584 18.5854C70.8868 18.7425 71.0723 18.8281 71.2151 18.8424C71.3578 18.8709 71.5006 18.8281 71.629 18.7425C71.7575 18.6425 71.9145 18.4855 72.0858 18.2429L75.4546 13.675C75.6259 13.4323 75.7401 13.2468 75.7829 13.1183C75.8258 12.9898 75.8115 12.8614 75.7401 12.7472C75.6687 12.633 75.526 12.4902 75.2976 12.3046L75.4403 12.1191C75.6259 12.2904 75.9114 12.5188 76.2968 12.79C76.5823 13.0041 76.825 13.1754 77.0534 13.3039L76.5966 20.8694L79.5657 16.844C79.737 16.6013 79.8654 16.4014 79.9083 16.2444C79.9511 16.0874 79.9368 15.9447 79.8654 15.8019C79.7941 15.6592 79.6228 15.4879 79.3801 15.3023L79.5229 15.1167C79.737 15.3023 80.051 15.545 80.465 15.859C80.8361 16.1302 81.1359 16.3443 81.3643 16.4728L81.2215 16.6584C80.9789 16.5156 80.7933 16.4157 80.6505 16.4014Z" fill="#292F36"/>
<path d="M85.4328 22.8392C85.8039 22.568 86.1893 22.2682 86.6033 21.8971C86.9602 22.4395 87.5883 23.3388 88.4875 24.6093C89.3868 25.8654 90.0292 26.7504 90.4146 27.2643C89.9293 27.5498 89.5153 27.8068 89.1442 28.0637C88.8301 28.2921 88.5732 28.4919 88.3876 28.6489L88.2306 28.4348C88.6874 28.0351 89.0014 27.7068 89.187 27.4642C89.3726 27.2215 89.4439 26.9646 89.4297 26.6933C89.4154 26.4221 89.2441 26.0938 88.9729 25.6941L88.6017 25.1802L83.1917 29.0344C82.9347 29.2199 82.7492 29.3912 82.6635 29.5197C82.5779 29.6482 82.5493 29.8052 82.6064 29.9765C82.6493 30.1335 82.7777 30.3619 82.9633 30.6474L82.7777 30.7901C82.5636 30.4475 82.2353 29.9622 81.8071 29.377C81.3503 28.7346 81.0077 28.2778 80.7793 27.9923L80.9649 27.8496C81.179 28.1208 81.3503 28.3064 81.493 28.4063C81.6358 28.5062 81.7785 28.5348 81.9355 28.4919C82.0926 28.4491 82.3067 28.3349 82.5636 28.1493L87.9737 24.2952L87.6025 23.7813C87.317 23.3816 87.0601 23.139 86.8174 23.0248C86.5748 22.9106 86.3035 22.8963 86.018 22.9962C85.7326 23.0962 85.3186 23.2817 84.7904 23.5815L84.6334 23.3674C84.8475 23.2532 85.1045 23.0819 85.4328 22.8392Z" fill="#292F36"/>
<path d="M88.1726 42.6524L87.9443 42.7237C87.8586 42.4097 87.7444 42.01 87.5731 41.5247C87.359 40.8966 87.1877 40.4255 87.0592 40.1115L87.2876 40.0401C87.3875 40.3113 87.5017 40.5112 87.5874 40.6111C87.6873 40.711 87.8158 40.7396 87.9585 40.6825C88.087 40.6396 88.244 40.5397 88.4296 40.3827L90.0141 39.0837L89.1148 36.4144L87.7872 36.3573C87.359 36.3287 87.0307 36.3573 86.8023 36.4429C86.5739 36.5286 86.4311 36.657 86.374 36.8426C86.3312 37.0282 86.3598 37.2994 86.4597 37.6277L86.2313 37.6991C86.1171 37.2709 85.9744 36.8426 85.8316 36.4144C85.7174 36.0861 85.6175 35.8149 85.5176 35.6007L85.746 35.5294C85.9458 35.8719 86.3741 36.0575 87.0021 36.0718L94.5962 36.4144L94.6533 36.5857L88.6009 41.6246C88.2297 41.9814 88.087 42.3098 88.1726 42.6524ZM93.1259 36.5857L89.386 36.4287L90.2282 38.941L93.1259 36.5857Z" fill="#292F36"/>
<path d="M89.2142 53.5724C89.3569 53.5153 89.4283 53.4439 89.4283 53.344C89.4283 53.2869 89.414 53.2441 89.3855 53.2013C89.3569 53.1584 89.2998 53.0728 89.2142 52.9586C89 52.6874 88.843 52.4019 88.7288 52.1164C88.6146 51.8309 88.5575 51.5026 88.5575 51.1457C88.5433 50.3464 88.7003 49.6612 89.0143 49.0759C89.3426 48.4907 89.7994 48.0481 90.4275 47.7341C91.0413 47.4201 91.7836 47.263 92.6543 47.2488C93.5536 47.2345 94.3387 47.3772 95.0096 47.6913C95.6805 48.0053 96.2087 48.4336 96.5798 49.0045C96.951 49.5755 97.1508 50.2179 97.1508 50.9316C97.1508 51.2456 97.1223 51.5311 97.0652 51.7738C97.0081 52.0165 96.9224 52.2306 96.8225 52.4162C96.7226 52.6017 96.5941 52.8158 96.4228 53.0442C96.3514 53.1442 96.3086 53.2298 96.3086 53.2869C96.3086 53.4297 96.5513 53.5296 97.0223 53.5724V53.8436C96.5227 53.8151 95.6234 53.8151 94.3387 53.8436V53.5724C94.7527 53.501 95.0953 53.4154 95.3665 53.3297C95.6377 53.2441 95.8661 53.1156 96.0659 52.9586C96.3372 52.7302 96.5655 52.4304 96.7226 52.0593C96.8796 51.6882 96.951 51.317 96.951 50.9173C96.9367 50.4034 96.7654 49.9609 96.4228 49.5755C96.0802 49.1901 95.5949 48.9046 94.9811 48.6905C94.353 48.4907 93.6393 48.3907 92.8113 48.405C91.8692 48.4193 91.1127 48.5335 90.5131 48.7476C89.9136 48.9617 89.4854 49.2758 89.1999 49.6897C88.9144 50.1037 88.7859 50.6318 88.8002 51.2742C88.8145 51.7453 88.9429 52.1449 89.1856 52.4875C89.2855 52.6303 89.3712 52.7159 89.4711 52.7587C89.5568 52.8016 89.6852 52.8158 89.8422 52.8158L90.9699 52.8016C91.2982 52.8016 91.5266 52.7587 91.6837 52.7016C91.8264 52.6445 91.9406 52.5304 91.9834 52.3591C92.0405 52.202 92.0691 51.9451 92.0691 51.6025H92.2975C92.2832 51.9879 92.2689 52.5304 92.2832 53.2584C92.2975 53.8008 92.3117 54.2147 92.3403 54.4717H92.1119C92.0976 54.2861 92.0548 54.1577 92.012 54.0863C91.9691 54.0149 91.8692 53.9578 91.7407 53.9293C91.6123 53.9007 91.3982 53.8864 91.0984 53.9007L88.7859 53.9435V53.7151C88.9144 53.658 89.0714 53.6295 89.2142 53.5724Z" fill="#292F36"/>
<path d="M87.5166 65.72C87.1026 65.5915 86.6173 65.463 86.0605 65.3488C86.2461 64.8492 86.5173 64.007 86.9027 62.8079C87.3595 61.3805 87.6878 60.2956 87.8877 59.5676L88.1161 59.639C88.0447 59.9102 88.0162 60.1101 88.0162 60.2528C88.0304 60.3955 88.0875 60.4955 88.2017 60.5811C88.3159 60.6668 88.5158 60.7524 88.787 60.8381L94.3112 62.5796C94.5967 62.6652 94.7966 62.708 94.9393 62.708C95.0821 62.708 95.1962 62.6509 95.2819 62.5367C95.3675 62.4225 95.4532 62.237 95.5531 61.98L95.7815 62.0514C95.5246 62.7794 95.182 63.85 94.7252 65.2774C94.3826 66.3623 94.1399 67.1474 94.0257 67.6185C93.5547 67.4186 93.1264 67.2473 92.7268 67.1331C92.4413 67.0475 92.1986 66.9761 92.0273 66.9476L92.1129 66.6906C92.6126 66.7905 92.998 66.8334 93.2549 66.8334C93.5119 66.8334 93.726 66.7477 93.8973 66.5764C94.0686 66.4194 94.2113 66.1339 94.3398 65.7485L94.6253 64.8207C94.7109 64.5494 94.7537 64.3496 94.7395 64.2211C94.7252 64.0927 94.6824 63.9785 94.5682 63.8928C94.454 63.8072 94.2684 63.7215 93.9829 63.6359L91.3564 62.8079L91.128 63.5502C91.0138 63.9214 91.0424 64.2069 91.2279 64.4067C91.4135 64.6065 91.6133 64.7493 91.8417 64.8492C92.0701 64.9491 92.2129 65.0205 92.27 65.049L92.1843 65.306C91.8275 65.1632 91.4849 65.0348 91.1423 64.9349L90.6141 64.7778C90.243 64.6636 89.7006 64.5066 89.0154 64.3496L89.101 64.0927C89.1581 64.1069 89.3437 64.1355 89.6577 64.2069C89.9718 64.2639 90.243 64.2354 90.4571 64.1212C90.6712 64.007 90.814 63.7929 90.9139 63.4931L91.1423 62.7508L88.4587 61.9087C88.1732 61.823 87.9733 61.7802 87.8306 61.7802C87.6878 61.7802 87.5736 61.8373 87.5023 61.9515C87.4166 62.0657 87.331 62.2512 87.2453 62.5225L86.9884 63.3361C86.8456 63.8072 86.7885 64.1783 86.8456 64.4495C86.8885 64.735 87.0312 64.9634 87.2739 65.1632C87.5165 65.3488 87.8877 65.5629 88.3873 65.7913L88.3016 66.0483C88.1304 65.9198 87.8591 65.8342 87.5166 65.72Z" fill="#292F36"/>
<path d="M83.4484 83.2348C83.5055 83.1064 83.4913 82.9779 83.4342 82.8494C83.3771 82.7209 83.2343 82.5639 83.0202 82.3498L78.8235 78.3387C78.6094 78.1388 78.4381 78.0104 78.3096 77.9533C78.1811 77.8962 78.0527 77.8962 77.9242 77.9533C77.7957 78.0104 77.6387 78.1388 77.4389 78.3387L77.2676 78.1816C77.5388 77.939 77.8814 77.5821 78.3239 77.1396C78.7807 76.6543 79.1233 76.2831 79.3374 76.0405L79.5087 76.1975C79.3231 76.4116 79.2089 76.5829 79.1518 76.6971C79.0947 76.8256 79.109 76.954 79.1661 77.0825C79.2232 77.211 79.3659 77.368 79.5801 77.5821L83.7768 81.5933C83.9909 81.7931 84.1622 81.9216 84.2906 81.9787C84.4191 82.0358 84.5476 82.0358 84.6761 81.9787C84.8045 81.9216 84.9616 81.7931 85.1614 81.5933L85.3327 81.7503C85.09 81.9644 84.7332 82.3213 84.2764 82.8066C83.8339 83.2634 83.5055 83.6345 83.2772 83.9057L83.1059 83.7487C83.2772 83.5346 83.3914 83.3633 83.4484 83.2348Z" fill="#292F36"/>
<path d="M71.5569 91.9422C71.6426 91.8138 71.6569 91.6853 71.6283 91.5283C71.5998 91.3713 71.4998 91.1714 71.3428 90.9002L67.8027 84.8906L68.0311 84.7479L76.1105 88.7876L72.9844 83.4774C72.8274 83.2205 72.6989 83.0349 72.5704 82.935C72.442 82.8351 72.2992 82.7923 72.1422 82.8065C71.9852 82.8208 71.7711 82.9065 71.4998 83.0492L71.3714 82.8494C71.6283 82.7352 71.9709 82.5353 72.4134 82.2784C72.8131 82.0357 73.1129 81.8501 73.327 81.6931L73.4412 81.893C73.2128 82.0357 73.0558 82.1784 72.9844 82.3069C72.8987 82.4354 72.8845 82.5639 72.913 82.7209C72.9416 82.8779 73.0415 83.0777 73.1985 83.349L76.082 88.2451C76.2247 88.5021 76.3532 88.6734 76.4674 88.759C76.5816 88.8447 76.6958 88.8875 76.8385 88.8589C76.967 88.8304 77.1668 88.759 77.4095 88.6305L77.5237 88.8304C77.2953 88.9446 76.9813 89.1159 76.5673 89.3585C76.2675 89.5298 76.0106 89.7011 75.7965 89.8439L69.0161 86.4608L71.5569 90.7717C71.714 91.0287 71.8424 91.2142 71.9709 91.3142C72.0851 91.4141 72.2278 91.4569 72.3991 91.4426C72.5704 91.4283 72.7845 91.3427 73.0558 91.2L73.17 91.3998C72.913 91.514 72.5704 91.7138 72.1279 91.9708C71.7282 92.2134 71.4285 92.399 71.2143 92.556L71.1002 92.3562C71.3143 92.1992 71.4713 92.0564 71.5569 91.9422Z" fill="#292F36"/>
<path d="M63.7065 93.8123C63.8064 94.2549 63.9348 94.7402 64.1061 95.2541C63.4638 95.3683 62.3932 95.5967 60.8801 95.9107C59.367 96.239 58.3107 96.4817 57.6826 96.6387C57.6112 96.082 57.5399 95.5967 57.4399 95.1542C57.3543 94.7687 57.2829 94.4547 57.1973 94.2263L57.4542 94.1692C57.6398 94.7545 57.8111 95.1684 57.9681 95.4396C58.1251 95.7109 58.325 95.8822 58.5819 95.9678C58.8388 96.0534 59.21 96.0392 59.681 95.9392L60.2948 95.8108L58.8959 89.3159C58.8246 89.0018 58.7532 88.7734 58.6533 88.645C58.5533 88.5165 58.4392 88.4308 58.2679 88.4166C58.0966 88.388 57.8396 88.4166 57.497 88.4737L57.4542 88.2453C57.8539 88.1882 58.4249 88.074 59.1386 87.917C59.8952 87.7457 60.4661 87.6172 60.823 87.5173L60.8658 87.7457C60.5232 87.8313 60.2948 87.917 60.1521 88.0026C60.0093 88.0883 59.9237 88.2167 59.8952 88.3737C59.8666 88.5308 59.8809 88.7734 59.9523 89.0875L61.3512 95.5824L61.965 95.4539C62.436 95.354 62.7786 95.2112 62.9785 95.0257C63.1783 94.8401 63.2925 94.5974 63.321 94.2977C63.3496 93.9979 63.3353 93.5411 63.2639 92.9416L63.5209 92.8845C63.5637 93.1129 63.6208 93.4269 63.7065 93.8123Z" fill="#292F36"/>
<path d="M44.7636 89.8011C44.8064 89.3586 44.8207 88.859 44.8207 88.3022C45.3488 88.3736 46.2338 88.4593 47.49 88.5735C48.9746 88.7019 50.1022 88.8019 50.8731 88.8447L50.8588 89.0731C50.5733 89.0588 50.3735 89.0731 50.245 89.1159C50.1165 89.1587 50.0166 89.2301 49.9595 89.3586C49.9024 89.487 49.8596 89.7012 49.831 89.9866L49.3171 95.7678C49.2886 96.0533 49.3029 96.2674 49.3314 96.4102C49.36 96.5529 49.4456 96.6528 49.5741 96.7099C49.7026 96.767 49.9024 96.8241 50.1736 96.8527L50.1593 97.0811C49.4028 96.9954 48.2751 96.8812 46.7906 96.7528C45.6486 96.6528 44.8349 96.5958 44.3496 96.5672C44.4495 96.0676 44.5209 95.6108 44.5495 95.1968C44.578 94.8971 44.5923 94.6544 44.578 94.4688L44.8492 94.4974C44.8635 95.0113 44.892 95.3824 44.9634 95.6394C45.0205 95.8963 45.149 96.0819 45.3488 96.2103C45.5344 96.3388 45.8484 96.4245 46.2481 96.453L47.2188 96.5386C47.5043 96.5672 47.7041 96.5529 47.8326 96.5244C47.9611 96.4958 48.061 96.4102 48.1181 96.2817C48.1752 96.1532 48.218 95.9391 48.2466 95.6536L48.4892 92.9129L47.7184 92.8415C47.333 92.813 47.0618 92.8986 46.9048 93.127C46.762 93.3554 46.6478 93.5838 46.605 93.8265C46.5479 94.0692 46.5193 94.2262 46.5051 94.2975L46.2338 94.269C46.2909 93.8836 46.3338 93.5267 46.3766 93.1699L46.4194 92.6132C46.448 92.2135 46.4765 91.671 46.5051 90.9573L46.7763 90.9859C46.7763 91.043 46.7906 91.2285 46.7906 91.5568C46.8048 91.8852 46.8762 92.1421 47.0475 92.3134C47.2045 92.499 47.4472 92.5989 47.7612 92.6274L48.532 92.6988L48.7747 89.901C48.8033 89.6155 48.789 89.4014 48.7604 89.2586C48.7319 89.1302 48.6462 89.0302 48.5178 88.9732C48.3893 88.9161 48.1895 88.8732 47.9182 88.8447L47.0618 88.7733C46.5764 88.7305 46.2053 88.759 45.9341 88.8732C45.6771 88.9731 45.4773 89.173 45.3346 89.4442C45.1918 89.7154 45.0776 90.1294 44.9634 90.6718L44.6922 90.6433C44.6922 90.4292 44.7207 90.1437 44.7636 89.8011Z" fill="#292F36"/>
<path d="M33.5305 84.5052C33.7446 84.4624 33.9873 84.5052 34.2442 84.6194C34.544 84.7479 34.7439 84.9335 34.8581 85.1761C34.9722 85.4331 34.9865 85.7899 34.9151 86.261L34.701 87.4315C34.6297 87.8455 34.5868 88.1595 34.5726 88.4022C34.5583 88.6306 34.6154 88.8447 34.7153 89.0303C34.8152 89.2158 35.0008 89.3586 35.272 89.4728L36.2998 89.901L37.3418 87.4172C37.456 87.146 37.5131 86.9462 37.5274 86.8034C37.5417 86.6607 37.4846 86.5465 37.3846 86.4466C37.2847 86.3467 37.1134 86.2467 36.8565 86.1325L36.9421 85.9184C37.2704 86.0754 37.713 86.2753 38.2982 86.518C38.912 86.7749 39.3831 86.9605 39.6971 87.0604L39.6115 87.2745C39.3403 87.1746 39.1404 87.1318 39.0119 87.1175C38.8692 87.1175 38.755 87.1603 38.6694 87.2745C38.5694 87.3744 38.4695 87.56 38.3553 87.8312L36.1142 93.1842C36 93.4554 35.9429 93.6552 35.9286 93.798C35.9144 93.9407 35.9715 94.0549 36.0714 94.1548C36.1713 94.2547 36.3426 94.3547 36.5995 94.4831L36.5139 94.6973C36.2141 94.5545 35.7859 94.3547 35.2149 94.112C34.9294 93.9978 34.6297 93.8693 34.2871 93.7266C33.9445 93.5839 33.7161 93.4982 33.5876 93.4411C33.0309 93.1984 32.5884 92.9272 32.2601 92.5989C31.9318 92.2706 31.7462 91.928 31.6606 91.5569C31.5749 91.1857 31.6177 90.8289 31.7748 90.472C31.8889 90.1865 32.0745 89.9296 32.3315 89.7012C32.5884 89.4728 32.9167 89.3015 33.3164 89.2158C33.7161 89.1302 34.2014 89.1445 34.7296 89.2729L34.6011 89.2016C34.3013 89.016 34.073 88.8304 33.9302 88.6306C33.7875 88.445 33.6875 88.2309 33.659 88.0025C33.6162 87.7741 33.6304 87.4886 33.6875 87.146L33.8874 85.9327C33.9302 85.69 33.9588 85.5045 33.9588 85.3617C33.9588 85.219 33.9445 85.1048 33.9017 85.0191C33.8588 84.9335 33.7875 84.8621 33.6875 84.8336C33.5733 84.7765 33.4591 84.7765 33.3592 84.805C33.2593 84.8336 33.1166 84.9049 32.931 85.0048L32.8168 84.8193C33.0737 84.6623 33.3164 84.5481 33.5305 84.5052ZM34.2442 89.587C33.9017 89.6298 33.6304 89.7583 33.4163 89.9724C33.2022 90.1865 33.0166 90.472 32.8596 90.8431C32.6169 91.4284 32.5599 91.9423 32.7169 92.3562C32.8739 92.7702 33.2593 93.1128 33.9017 93.384C34.13 93.4839 34.3013 93.5268 34.4441 93.5125C34.5726 93.5125 34.6868 93.4554 34.7867 93.3412C34.8866 93.227 34.9865 93.0414 35.0864 92.7845L36.1999 90.1294L35.4719 89.8296C35.0008 89.6298 34.5868 89.5441 34.2442 89.587Z" fill="#292F36"/>
<path d="M22.3961 86.4466C22.5246 86.4894 22.6531 86.4609 22.7673 86.3895C22.8814 86.3181 23.0385 86.1611 23.224 85.9327L26.8069 81.3649C26.9925 81.1365 27.1067 80.9509 27.1495 80.8225C27.1924 80.694 27.1781 80.5655 27.1067 80.4513C27.0353 80.3371 26.8926 80.1801 26.6785 79.9945L26.8212 79.809C27.0924 80.0516 27.4636 80.3657 27.9632 80.7511C28.4913 81.165 28.891 81.4648 29.1622 81.6504L29.0195 81.8359C28.7911 81.6647 28.6055 81.5647 28.4771 81.5362C28.3486 81.4934 28.2201 81.5076 28.1059 81.5933C27.9917 81.6646 27.8347 81.8217 27.6491 82.0501L24.0662 86.6179C23.8807 86.8463 23.7665 87.0319 23.7236 87.1603C23.6808 87.2888 23.6951 87.4173 23.7665 87.5315C23.8378 87.6457 23.9806 87.8027 24.1947 87.9883L24.052 88.1738C23.8093 87.9597 23.4239 87.6457 22.8957 87.2174C22.3961 86.832 21.9964 86.5323 21.7109 86.3324L21.8537 86.1469C22.0964 86.3039 22.2676 86.4038 22.3961 86.4466Z" fill="#292F36"/>
<path d="M13.1744 76.2832C13.1173 75.6409 13.26 74.9985 13.5883 74.3847C13.9309 73.7566 14.4448 73.1999 15.1585 72.6717C15.858 72.1721 16.5575 71.8438 17.2855 71.7154C18.0135 71.5869 18.6844 71.6297 19.3124 71.8724C19.9405 72.115 20.4687 72.529 20.8826 73.1143C21.3251 73.7138 21.5678 74.3419 21.6249 74.9842C21.682 75.6266 21.5393 76.2689 21.211 76.8827C20.8684 77.5108 20.3545 78.0675 19.6408 78.5957C18.9413 79.0953 18.2418 79.4236 17.5138 79.5521C16.8001 79.6805 16.1149 79.6377 15.4869 79.3951C14.8588 79.1524 14.3306 78.7384 13.9167 78.1674C13.4742 77.5536 13.2315 76.9256 13.1744 76.2832ZM15.3156 78.8241C15.8152 78.924 16.3862 78.8812 17.0142 78.6813C17.6423 78.4815 18.2704 78.1532 18.927 77.6678C19.5837 77.1968 20.0975 76.6829 20.4544 76.1405C20.8255 75.598 21.0254 75.0556 21.0539 74.5417C21.0968 74.0278 20.9683 73.571 20.6971 73.1856C20.3973 72.7859 20.0119 72.529 19.498 72.4291C18.9984 72.3292 18.4274 72.372 17.7993 72.5718C17.1713 72.7717 16.5432 73.1 15.8865 73.571C15.2299 74.0421 14.716 74.556 14.3592 75.1127C13.988 75.6551 13.7882 76.1833 13.7454 76.7114C13.7025 77.2253 13.831 77.6821 14.1022 78.0675C14.402 78.4672 14.8017 78.7242 15.3156 78.8241Z" fill="#292F36"/>
<path d="M14.2735 59.0966C14.4448 59.2251 14.5733 59.4392 14.6589 59.7247C14.7588 60.0245 14.7446 60.31 14.6304 60.5526C14.5162 60.8096 14.2449 61.0522 13.831 61.2949L12.7889 61.8801C12.4321 62.0943 12.1609 62.2656 11.9753 62.4083C11.7897 62.5511 11.6613 62.7224 11.5899 62.9222C11.5185 63.122 11.5185 63.3504 11.6042 63.6359L11.9325 64.7065L14.5019 63.9071C14.7874 63.8215 14.9729 63.7358 15.0871 63.6502C15.2013 63.5645 15.2584 63.4504 15.2727 63.3219C15.287 63.1934 15.2442 62.9793 15.1728 62.7081L15.4012 62.6367C15.4868 62.9793 15.6153 63.4646 15.8151 64.0642C16.015 64.7065 16.172 65.1776 16.2862 65.4773L16.0578 65.5487C15.9579 65.2775 15.8722 65.0919 15.7866 64.992C15.701 64.8921 15.5868 64.8207 15.444 64.8207C15.3013 64.8207 15.0871 64.8493 14.8159 64.9492L9.27741 66.6621C8.99192 66.7478 8.80635 66.8334 8.69215 66.9191C8.57796 67.0047 8.52086 67.1189 8.50659 67.2474C8.49231 67.3901 8.53514 67.59 8.60651 67.8612L8.37811 67.9326C8.30674 67.6185 8.17827 67.1617 7.9927 66.5622C7.90706 66.2767 7.79286 65.9484 7.67866 65.6058C7.56447 65.2632 7.47882 65.0205 7.436 64.8921C7.25043 64.3068 7.19333 63.7929 7.23615 63.3362C7.27898 62.8794 7.42172 62.5082 7.65011 62.2085C7.87851 61.9087 8.17827 61.7089 8.54941 61.5947C8.8349 61.509 9.14894 61.4805 9.49153 61.5233C9.83412 61.5661 10.1624 61.7089 10.505 61.9658C10.8476 62.2227 11.1331 62.5939 11.3758 63.0935L11.3615 62.9507C11.3187 62.5939 11.3044 62.3084 11.3615 62.0657C11.4186 61.8231 11.5185 61.6232 11.6613 61.4519C11.8183 61.2806 12.0467 61.0951 12.3464 60.9238L13.4028 60.2957C13.6169 60.1815 13.7882 60.0673 13.8881 59.9816C13.988 59.896 14.0737 59.8103 14.1165 59.7247C14.1593 59.639 14.1593 59.5391 14.1308 59.4392C14.0879 59.3107 14.0308 59.2251 13.9452 59.168C13.8595 59.1109 13.7168 59.0395 13.5169 58.9681L13.5883 58.754C13.8738 58.854 14.1165 58.9681 14.2735 59.0966ZM10.8619 62.9222C10.6192 62.6938 10.3337 62.5653 10.034 62.5368C9.7342 62.5082 9.39161 62.5511 9.00619 62.6795C8.39239 62.8651 7.97843 63.1649 7.75004 63.5503C7.52164 63.9357 7.52164 64.4638 7.72149 65.1062C7.79286 65.3346 7.87851 65.5059 7.96415 65.6058C8.0498 65.7057 8.17827 65.7628 8.32102 65.7628C8.46376 65.7628 8.67788 65.72 8.93482 65.6486L11.6755 64.7922L11.4471 64.0356C11.3044 63.5217 11.1046 63.1506 10.8619 62.9222Z" fill="#292F36"/>
<path d="M13.1746 45.5501C13.717 45.3074 14.0453 44.8506 14.1881 44.1655C14.2309 43.9085 14.2309 43.6516 14.1595 43.4089C14.0881 43.1662 13.9597 42.9521 13.7598 42.7666C13.56 42.581 13.2888 42.4525 12.9319 42.3954C12.6321 42.3383 12.3609 42.3669 12.104 42.4668C11.847 42.5667 11.5901 42.7237 11.3474 42.9379C11.1048 43.152 10.8193 43.4375 10.5052 43.7943C10.1484 44.194 9.83433 44.5223 9.56311 44.7507C9.2919 44.9934 8.99213 45.1647 8.66382 45.2932C8.3355 45.4216 7.96436 45.4359 7.5504 45.3645C7.12217 45.2789 6.7653 45.1219 6.50836 44.8649C6.25142 44.608 6.06585 44.3082 5.9802 43.9513C5.89456 43.5945 5.89456 43.2233 5.96593 42.8237C6.00875 42.581 6.06585 42.3954 6.13722 42.2241C6.2086 42.0528 6.27997 41.9244 6.36562 41.8244C6.45126 41.7245 6.53691 41.6103 6.65111 41.4961C6.79385 41.3391 6.86523 41.2249 6.89377 41.1393C6.90805 41.0679 6.8795 41.0108 6.80813 40.9537C6.73675 40.8966 6.60828 40.8538 6.43699 40.7967L6.47981 40.5397C6.92232 40.6539 7.69315 40.8252 8.82084 41.0393L8.77801 41.2963C8.37833 41.2535 8.00719 41.2677 7.63605 41.3534C7.27919 41.4248 6.96515 41.5818 6.70821 41.8244C6.45126 42.0528 6.27997 42.3811 6.2086 42.7808C6.1515 43.0521 6.16577 43.2947 6.23715 43.5374C6.30852 43.7801 6.43699 43.9656 6.60828 44.1226C6.79385 44.2797 7.00797 44.3796 7.26491 44.4367C7.67887 44.5081 8.03574 44.451 8.3355 44.2511C8.63527 44.0513 8.92076 43.7943 9.19197 43.4946C9.46319 43.1948 9.63449 42.995 9.73441 42.895C10.1341 42.4668 10.4624 42.1385 10.7336 41.8958C11.0048 41.6531 11.3046 41.4819 11.6329 41.3677C11.9612 41.2535 12.3181 41.2392 12.7035 41.3106C13.1746 41.3962 13.56 41.5818 13.8455 41.853C14.131 42.1385 14.3165 42.4668 14.4165 42.8665C14.5164 43.2662 14.5164 43.6944 14.4307 44.1512C14.3594 44.5223 14.2737 44.8078 14.1452 45.0362C14.031 45.2646 13.874 45.4644 13.7027 45.65C13.56 45.807 13.4886 45.9212 13.4601 46.0069C13.4458 46.0783 13.4743 46.1354 13.5457 46.1925C13.6171 46.2495 13.7456 46.3066 13.9168 46.3495L13.874 46.6064C13.4601 46.4922 12.5465 46.3066 11.1333 46.0497L11.1761 45.7928C11.9755 45.8641 12.6321 45.7928 13.1746 45.5501Z" fill="#292F36"/>
<path d="M10.3489 33.5165C9.94918 33.3024 9.4924 33.1026 8.97852 32.9027C9.29256 32.346 9.82071 31.3754 10.5344 29.9907C11.2482 28.6204 11.7478 27.6497 12.019 27.0645C12.4901 27.3642 12.9183 27.6212 13.3037 27.821C13.6463 28.0066 13.9461 28.135 14.1744 28.235L14.046 28.4776C13.475 28.2492 13.0468 28.1065 12.747 28.0637C12.4472 28.0066 12.176 28.0637 11.9476 28.2064C11.7192 28.3492 11.4908 28.6347 11.2767 29.0629L10.9912 29.6339L16.8866 32.7029C17.1721 32.8599 17.4005 32.9313 17.5575 32.9456C17.7145 32.9598 17.8573 32.917 17.9857 32.8028C18.1142 32.6886 18.257 32.4745 18.4283 32.1747L18.6424 32.2889C18.4283 32.6458 18.157 33.1454 17.8145 33.802C17.4576 34.4872 17.2006 35.0154 17.0436 35.3437L16.8295 35.2295C16.9723 34.9154 17.0722 34.6728 17.0865 34.5158C17.115 34.3445 17.0722 34.2017 16.958 34.0733C16.8438 33.9448 16.6582 33.8163 16.3727 33.6593L10.4773 30.576L10.1776 31.1327C9.94918 31.5609 9.84926 31.9035 9.86354 32.1747C9.87781 32.446 9.99201 32.6886 10.2061 32.9027C10.4202 33.1169 10.7771 33.4023 11.291 33.7307L11.1625 33.9733C10.977 33.8591 10.6915 33.7021 10.3489 33.5165Z" fill="#292F36"/>
<path d="M20.4263 17.1153C20.669 16.8726 20.8688 16.6442 21.0115 16.4729L21.1828 16.6442C21.0972 16.7727 21.0544 16.9582 21.0686 17.1724C21.0829 17.3865 21.14 17.6862 21.2542 18.0431L22.5532 21.9115L24.0663 23.4103C24.2804 23.6102 24.4374 23.7529 24.5659 23.81C24.6944 23.8671 24.8228 23.8671 24.9513 23.81C25.0798 23.7529 25.2368 23.6244 25.4509 23.4389L25.6222 23.6102C25.351 23.8528 24.9941 24.1954 24.5516 24.6379C24.0806 25.109 23.738 25.4801 23.5239 25.7228L23.3526 25.5515C23.5381 25.3374 23.6666 25.1804 23.7237 25.0519C23.7808 24.9234 23.7808 24.795 23.7094 24.6665C23.6523 24.538 23.5096 24.3667 23.3097 24.1669L22.0536 22.925L17.2859 21.5261C17.0004 21.4404 16.7863 21.4119 16.6435 21.4262C16.5008 21.4404 16.4009 21.4833 16.3295 21.5546L16.1582 21.3833C16.3866 21.1835 16.6435 20.9551 16.9005 20.6839C17.4286 20.1415 17.814 19.756 18.0282 19.4991L18.1995 19.6704C17.814 20.0558 17.7284 20.3556 17.9425 20.5697C18.0282 20.6553 18.1424 20.7124 18.3137 20.7695L22.3248 22.0114L21.2685 18.8567C21.1115 18.4 20.9544 18.0859 20.7832 17.9289C20.6261 17.7719 20.4548 17.7291 20.2693 17.7862C20.0837 17.8433 19.8696 17.986 19.6126 18.2287L19.4413 18.0574C19.7839 17.7433 20.098 17.4293 20.4263 17.1153Z" fill="#292F36"/>
<path d="M29.0628 11.3626C28.9771 11.4625 28.9343 11.591 28.9628 11.7337C28.9914 11.8765 29.0628 12.0763 29.2055 12.3333L31.9605 17.4436C32.1032 17.7005 32.2174 17.8718 32.3316 17.9717C32.4316 18.0716 32.56 18.1002 32.6885 18.0859C32.817 18.0716 33.0168 17.986 33.2595 17.8575L34.016 17.4436C34.4443 17.2152 34.744 16.9725 34.9011 16.7298C35.0581 16.4872 35.1152 16.2159 35.0723 15.8876C35.0295 15.5593 34.9011 15.1454 34.6727 14.6029L34.9153 14.4745C35.0152 14.7028 35.158 14.9883 35.3436 15.3309C35.5577 15.7163 35.8146 16.1446 36.1287 16.6156C35.6576 16.844 34.8582 17.258 33.7591 17.8575C32.4458 18.5712 31.4466 19.1137 30.79 19.4991L30.6758 19.2992C30.9185 19.1565 31.0898 19.028 31.1754 18.9281C31.261 18.8282 31.3039 18.6997 31.2753 18.557C31.2468 18.4142 31.1754 18.2144 31.0327 17.9574L28.2491 12.8472C28.1064 12.5902 27.9922 12.4189 27.878 12.319C27.7781 12.2191 27.6496 12.1905 27.5211 12.2048C27.3784 12.2191 27.1928 12.2905 26.9359 12.4189L26.8359 12.2048C27.1357 12.0763 27.5782 11.8479 28.1635 11.5196C28.7202 11.2199 29.1484 10.9772 29.4482 10.7916L29.5624 10.9915C29.3197 11.1342 29.1627 11.2627 29.0628 11.3626Z" fill="#292F36"/>
<path d="M46.4477 12.276C46.5333 12.7043 46.6618 13.1896 46.8188 13.732C46.2906 13.8177 45.4199 13.9747 44.1923 14.2174C42.722 14.5029 41.6229 14.7313 40.8663 14.9026L40.8235 14.6742C41.0947 14.6028 41.2946 14.5457 41.4088 14.46C41.523 14.3887 41.5943 14.2745 41.6086 14.146C41.6229 14.0033 41.6086 13.7891 41.5515 13.5037L40.4381 7.80811C40.381 7.52262 40.3239 7.32278 40.2382 7.19431C40.1526 7.06584 40.067 6.99446 39.9242 6.98019C39.7957 6.95164 39.5816 6.96591 39.3104 7.00874L39.2676 6.78034C40.0241 6.65187 41.1375 6.45203 42.5935 6.16654C43.7212 5.93815 44.5206 5.78113 44.9774 5.66693C45.0202 6.18081 45.0916 6.6376 45.163 7.03729C45.2201 7.33705 45.2772 7.56544 45.3343 7.73674L45.0773 7.79384C44.9203 7.3085 44.7775 6.95164 44.6491 6.72325C44.5206 6.49485 44.335 6.35211 44.1209 6.28074C43.8925 6.20936 43.5928 6.20936 43.1788 6.29501L42.2224 6.48058C41.9512 6.53768 41.7513 6.59478 41.6372 6.66615C41.523 6.73752 41.4516 6.83744 41.423 6.98019C41.4088 7.12293 41.423 7.33705 41.4801 7.62254L42.0083 10.3347L42.7648 10.1777C43.1502 10.1063 43.3786 9.93502 43.4643 9.67808C43.5499 9.42113 43.5785 9.17847 43.5642 8.9358C43.5499 8.69313 43.5357 8.53611 43.5357 8.46474L43.7926 8.40764C43.8354 8.79305 43.8925 9.14992 43.9639 9.49251L44.0781 10.0349C44.1495 10.4204 44.2779 10.9628 44.4635 11.648L44.2066 11.7051C44.1923 11.648 44.1352 11.4767 44.0353 11.1626C43.9354 10.8486 43.7926 10.6345 43.5785 10.506C43.3644 10.3775 43.1217 10.349 42.8077 10.4061L42.0511 10.5488L42.5935 13.3038C42.6506 13.5893 42.7077 13.7891 42.7791 13.9176C42.8505 14.0318 42.9504 14.1032 43.0932 14.1317C43.2216 14.146 43.4357 14.1317 43.707 14.0746L44.5492 13.9033C45.0202 13.8034 45.3771 13.6749 45.6055 13.5037C45.8339 13.3324 45.9623 13.0897 46.0194 12.7899C46.0765 12.4902 46.0765 12.0619 46.0337 11.5052L46.2906 11.4481C46.3335 11.6622 46.3763 11.9335 46.4477 12.276Z" fill="#292F36"/>
<path d="M36.8281 66.7905C36.1715 65.9055 35.6005 64.9348 35.1009 63.8642C34.6013 62.7936 34.2016 61.7088 33.9018 60.5954C33.2452 55.6992 33.2309 50.9458 33.8447 46.3351C34.4585 41.7244 35.4577 37.1851 36.8281 32.7029C37.0565 32.2033 37.5561 31.9606 38.3269 31.9606C39.0978 31.9606 39.8543 32.1319 40.6251 32.4745C41.396 32.8171 42.024 33.2739 42.5236 33.8449C43.0233 34.4159 43.1374 35.0154 42.8662 35.6292C42.438 36.5428 42.024 37.7847 41.6101 39.3263C41.1961 40.8822 40.7821 42.5952 40.411 44.4651C40.0256 46.3351 39.6973 48.305 39.4118 50.3463C39.1263 52.3875 38.9122 54.3574 38.7837 56.2274C38.6552 58.0973 38.6267 59.796 38.6981 61.3091C38.7694 62.8222 38.9978 64.0213 39.3832 64.892C41.1818 62.4796 42.8234 59.9816 44.3222 57.3979C45.8211 54.8142 47.22 52.2019 48.5332 49.5326C49.8465 46.8775 51.1026 44.1939 52.2874 41.4675C53.4722 38.7553 54.6427 36.0717 55.7847 33.4309C56.3557 32.0891 56.9266 30.6759 57.4834 29.1914C58.0401 27.6926 58.7681 26.4221 59.6959 25.3515C60.0813 25.0089 60.3811 24.8948 60.5809 25.0089C60.795 25.1231 60.9378 25.3373 61.0092 25.6656C61.0805 25.9939 61.1234 26.3365 61.1234 26.6933C61.1234 27.0502 61.1234 27.3357 61.1234 27.5213C60.8521 29.277 60.6238 31.0185 60.4382 32.7457C60.2526 34.473 59.8387 36.1288 59.2391 37.7418C58.2399 40.2684 57.2264 42.7665 56.1701 45.2645C55.1138 47.7483 53.9861 50.2035 52.787 52.6159C51.588 55.0283 50.2747 57.3693 48.8901 59.639C47.4912 61.9229 45.9781 64.0926 44.3222 66.1482C43.0233 67.7897 41.7243 68.6605 40.4538 68.7604C39.1263 68.8746 37.9415 68.2037 36.8281 66.7905Z" fill="#292F36" stroke="white" stroke-miterlimit="10"/>
<path d="M60.4658 60.3099C59.695 59.2393 58.9384 58.1544 58.1962 57.041C57.4539 55.9276 57.0828 54.7143 57.0828 53.3725C57.0828 51.8879 57.511 50.4747 58.3675 49.1472C59.2239 47.834 60.2089 46.7634 61.3223 45.964C61.7791 45.6642 62.2501 45.4073 62.7212 45.2217C63.1923 45.0361 63.7061 45.0504 64.2486 45.2788C64.477 45.393 64.7196 45.4787 64.9623 45.5358C65.205 45.5929 65.4334 45.6642 65.6189 45.7356C65.8045 45.807 66.0186 45.9212 66.247 46.0782C66.4754 46.2352 66.5896 46.4351 66.5896 46.7063C66.5896 47.7769 66.6181 48.6476 66.6752 49.3185C66.7323 49.9894 66.818 50.5604 66.9322 51.0457C67.0464 51.5311 67.1606 51.945 67.2748 52.3019C67.389 52.673 67.5032 53.0584 67.6174 53.4724C67.6887 53.8578 67.6745 54.1861 67.5603 54.4431C67.4461 54.7143 67.1606 54.7428 66.7038 54.5573C65.8616 54.2575 65.2335 53.6437 64.8338 52.7158C64.4341 51.788 64.1344 50.9601 63.9488 50.1893C63.906 50.0322 63.8203 49.7753 63.6633 49.3899C63.5063 49.0045 63.4207 48.7333 63.3778 48.5905C63.0781 48.5191 62.7069 48.6191 62.293 48.9045C61.879 49.19 61.4936 49.5897 61.1796 50.0751C60.8512 50.5747 60.6371 51.1456 60.5515 51.8023C60.4515 52.4589 60.58 53.1013 60.9226 53.7579C61.0796 53.9863 61.2937 54.2718 61.5792 54.5858C61.8647 54.9141 62.1502 55.2424 62.4357 55.585C62.7212 55.9276 63.0067 56.2702 63.2922 56.5842C63.5777 56.8983 63.8203 57.1695 64.0059 57.3551C64.2343 57.5835 64.3913 57.7119 64.4627 57.7262C64.5341 57.7405 64.7339 57.6977 65.0337 57.5835C65.4191 57.3979 66.0043 57.141 66.7894 56.8412C67.5745 56.5414 68.4025 56.2274 69.2589 55.9276C70.1154 55.6279 70.9433 55.3709 71.7284 55.1568C72.5135 54.9427 73.1131 54.8427 73.5413 54.8427C73.8125 54.8427 73.9981 54.9427 74.1123 55.1282C74.2265 55.2424 74.2122 55.3995 74.0552 55.585C73.8982 55.7706 73.6983 55.9704 73.4556 56.156C73.213 56.3416 72.9418 56.5129 72.6848 56.6699C72.4136 56.8269 72.2423 56.9126 72.1709 56.9554C71.5143 57.3408 70.7007 57.769 69.7014 58.2544C68.7022 58.7254 67.8458 59.1965 67.1178 59.6533C67.0464 59.7246 66.9036 59.8103 66.6895 59.8817C66.4754 59.953 66.3184 60.0387 66.2042 60.1101C66.661 61.1378 66.9893 62.0371 67.1749 62.7794C67.3604 63.5217 67.4318 64.2354 67.3747 64.9348C67.3176 65.62 67.1749 66.3195 66.9465 67.0332C66.7181 67.7469 66.404 68.5606 66.0329 69.4741C65.4905 70.3592 64.948 71.2014 64.3913 72.0007C63.8346 72.8001 63.2208 73.5281 62.5214 74.1847C61.8362 74.8414 61.0796 75.3553 60.2803 75.7264C59.4809 76.1118 58.5959 76.2974 57.6395 76.2974C57.097 76.2974 56.5832 76.226 56.0835 76.0975C55.5839 75.9691 55.17 75.6836 54.8274 75.2696C53.9424 74.3132 53.457 73.2712 53.3428 72.1435C53.2286 71.0158 53.3286 69.9024 53.6283 68.789C53.8567 68.1038 54.1422 67.4757 54.4848 66.8905C55.327 65.4345 56.2548 64.2068 57.2683 63.1934C58.2961 62.1941 59.3524 61.2235 60.4658 60.3099ZM62.4214 62.8936C61.9932 63.3218 61.4222 63.9214 60.6942 64.7065C59.9662 65.4916 59.2953 66.348 58.653 67.2616C58.0249 68.1752 57.511 69.0887 57.1113 69.988C56.7116 70.8873 56.6117 71.6582 56.7973 72.3148C57.5681 71.9722 58.3532 71.4012 59.1526 70.6161C59.9519 69.831 60.6657 68.9745 61.2795 68.0324C61.8933 67.0903 62.3215 66.1625 62.5642 65.2489C62.8068 64.321 62.764 63.5359 62.4214 62.8936Z" fill="#292F36" stroke="white" stroke-miterlimit="10"/>
<path d="M51.1604 83.5489C33.303 83.5489 18.7715 69.0174 18.7715 51.16C18.7715 33.3025 33.303 18.7711 51.1604 18.7711C69.0179 18.7711 83.5493 33.3025 83.5493 51.16C83.5493 69.0174 69.0179 83.5489 51.1604 83.5489ZM51.1604 20.1985C34.0881 20.1985 20.1989 34.0876 20.1989 51.16C20.1989 68.2323 34.0881 82.1214 51.1604 82.1214C68.2328 82.1214 82.1219 68.2323 82.1219 51.16C82.1219 34.0876 68.2328 20.1985 51.1604 20.1985Z" fill="#292F36"/>
</svg>
