<svg width="145" height="45" viewBox="0 0 145 45" fill="none" xmlns="http://www.w3.org/2000/svg">
<path d="M20.242 8.82893L21.3126 8.60054C21.5838 8.60054 21.8122 8.65764 21.9692 8.77184C22.1262 8.88603 22.2119 9.00023 22.2119 9.10015C22.2119 9.20007 22.1833 9.35709 22.1405 9.54266C22.0977 9.72823 21.698 11.641 20.9557 15.2525C20.2134 18.8639 19.671 21.5618 19.3284 23.3319C20.9843 21.0765 22.9256 18.3072 25.1382 15.0098C27.3507 11.7124 28.6497 9.52839 29.0208 8.44352C29.135 8.10093 29.292 7.84399 29.4776 7.65842C29.6632 7.47285 29.8345 7.35866 29.9772 7.33011C30.12 7.30156 30.3484 7.27301 30.6481 7.27301C30.9479 7.27301 31.3048 7.34438 31.7187 7.47286C32.1327 7.60133 32.3468 7.81544 32.3468 8.12948C32.3468 8.70046 31.4903 10.3706 29.7917 13.1113C28.093 15.852 26.1374 18.764 23.9391 21.8473C21.7408 24.9306 19.9137 27.3716 18.4434 29.1701C18.1865 29.4842 17.8582 29.6555 17.487 29.6555C17.1159 29.6555 16.7162 29.5841 16.3022 29.4556C15.8883 29.3272 15.6741 29.0988 15.6741 28.7562C15.6741 27.6856 16.6163 22.5182 18.5005 13.2826C16.8875 15.3667 14.9319 18.2787 12.6337 22.0043C10.2355 25.8585 8.87947 28.2566 8.56543 29.1701C8.39414 29.7269 8.1943 30.0552 7.9659 30.1408C7.80889 30.2122 7.63758 30.2407 7.46629 30.2407L6.31005 30.3692C6.08166 30.3692 5.88181 30.3121 5.68197 30.1836C5.4964 30.0552 5.39648 29.9267 5.39648 29.784C5.39648 29.3985 5.93892 28.228 7.00951 26.2867C8.0801 24.3454 9.35053 22.2327 10.7923 19.9488C12.234 17.6649 13.7328 15.4523 15.303 13.2969C16.8732 11.1414 18.0866 9.68541 18.943 8.95741C19.1143 8.80039 19.3142 8.72901 19.5426 8.72901L20.242 8.82893Z" fill="#292F36"/>
<path d="M37.3996 18.5072C38.1418 18.5072 38.513 18.7642 38.513 19.2638C38.513 19.535 38.4559 19.7348 38.3274 19.8633C38.1989 19.9918 37.9277 20.4057 37.5138 21.1337C37.0998 21.8475 36.643 22.761 36.1434 23.8887C35.6438 25.0021 35.3155 25.9585 35.1727 26.7436C35.1442 26.8435 35.1299 26.972 35.1299 27.1576C35.1299 27.7 35.2727 27.957 35.5724 27.957C35.8722 27.957 36.2148 27.8142 36.6145 27.543C37.0142 27.2575 37.371 26.972 37.6851 26.6437C37.9991 26.3297 38.2989 26.0013 38.5986 25.673C38.8984 25.3447 39.0697 25.1449 39.1268 25.1021C39.1839 25.0592 39.2695 25.0307 39.3837 25.0307C39.5693 25.0307 39.6835 25.1734 39.7263 25.4589C39.7691 25.7444 39.7834 26.0299 39.7834 26.3439C39.7834 26.658 39.7549 26.8578 39.6978 26.972C39.4123 27.5287 38.7985 28.1996 37.8278 28.9847C36.8714 29.7698 35.9864 30.1552 35.2013 30.1552C34.4162 30.1552 33.8309 29.9126 33.4741 29.4415C33.1172 28.9704 32.9174 28.428 32.9174 27.857C32.9174 27.2718 33.0173 26.7722 33.2171 26.3297C32.4035 27.386 31.4756 28.271 30.4336 29.0133C29.3773 29.7413 28.5351 30.1124 27.8642 30.1124C27.1933 30.1124 26.6651 29.9126 26.2369 29.5129C25.6945 29.0133 25.4375 28.3281 25.4375 27.4431C25.4375 26.5581 25.6373 25.673 26.037 24.7737C26.4367 23.8887 26.9506 23.0608 27.593 22.3328C28.2353 21.5905 28.949 20.9196 29.7199 20.3201C31.3329 19.0496 32.8317 18.4216 34.2021 18.4216C34.7302 18.4216 35.1585 18.5072 35.4868 18.6785C35.8151 18.8498 36.0292 19.0782 36.1149 19.3351C36.3433 18.9783 36.5431 18.7642 36.7144 18.6642C36.8429 18.55 37.0855 18.5072 37.3996 18.5072ZM35.4582 20.1345C33.7881 20.1345 32.0609 21.0624 30.2766 22.918C29.6485 23.5889 29.0632 24.3741 28.5208 25.3019C27.9784 26.2297 27.7214 26.8578 27.7214 27.2004C27.7214 27.543 27.8214 27.7143 28.0212 27.7143C28.2924 27.7143 29.049 27.1719 30.3051 26.1013C31.5613 25.0307 32.3892 24.2313 32.7889 23.7174C33.2457 23.1464 34.1307 21.9474 35.4582 20.1345Z" fill="#292F36"/>
<path d="M48.505 10.7703L49.1045 10.913C49.1901 10.913 49.2758 10.9558 49.3329 11.0415C49.4043 11.1271 49.4328 11.2128 49.4328 11.2841C49.4328 11.3555 49.3329 11.5696 49.1188 11.9122C48.9047 12.2548 48.6763 12.6402 48.3908 13.0685C48.1053 13.4967 47.9625 13.7394 47.9483 13.7822C48.7048 13.7251 49.2472 13.6965 49.5613 13.6965C49.8753 13.6965 50.0894 13.7251 50.2179 13.7679C50.3321 13.8107 50.4748 13.9392 50.6176 14.1391C50.7746 14.3389 50.9031 14.4959 51.0316 14.5958C51.16 14.6958 51.2171 14.8528 51.2171 15.0526C51.2171 15.2525 51.0887 15.438 50.846 15.5665C50.6033 15.7093 50.3321 15.7949 50.0466 15.8235C47.777 16.0518 46.5351 16.166 46.3067 16.1803C45.5216 17.3937 44.4082 19.2779 42.995 21.833C41.5818 24.3882 40.8253 26.0012 40.7396 26.6435C40.6968 26.9433 40.6825 27.1717 40.6825 27.3573C40.6825 27.7427 40.8824 27.9283 41.2821 27.9283C41.6817 27.9283 42.1242 27.7712 42.6096 27.4715C43.0949 27.1574 43.5517 26.8291 43.9514 26.4723C45.0505 25.5016 45.6358 25.002 45.7072 25.002C45.9641 25.002 46.0926 25.4445 46.0926 26.3152C46.0926 26.7863 45.8785 27.2145 45.4359 27.5999C44.451 28.4421 43.6231 29.0845 42.9522 29.5127C42.2813 29.941 41.6104 30.1551 40.9252 30.1551C40.7824 30.1551 40.6397 30.1408 40.5112 30.1123C39.7261 29.9695 39.1551 29.684 38.7983 29.2558C38.4271 28.8276 38.2559 28.2566 38.2559 27.5428C38.2559 26.8291 38.47 25.9441 38.8982 24.9163C39.3264 23.8886 39.8546 22.7894 40.497 21.6332C41.5533 19.7347 42.6096 17.9646 43.6516 16.3088L43.0949 16.3802C41.9672 16.5086 41.3106 16.5657 41.125 16.5657H40.9966C40.7111 16.5657 40.4399 16.5086 40.1829 16.3944C39.926 16.2802 39.7832 16.1375 39.7832 15.9805C39.7832 15.8092 39.8546 15.6522 39.9974 15.4951C40.1401 15.3381 40.2257 15.2096 40.2543 15.124C40.3257 14.9099 40.5826 14.6672 41.0251 14.4103C41.4676 14.1533 41.7959 14.0106 42.0243 13.9963C42.2527 13.982 42.4668 13.9678 42.681 13.9535C42.8951 13.9392 43.1235 13.9392 43.3804 13.9249C43.6374 13.9107 43.8372 13.9107 43.9799 13.8964L45.2932 13.8393C46.1068 12.6117 46.6778 11.8123 46.9776 11.4697C47.2916 11.1129 47.4629 10.9273 47.5058 10.8987C47.5486 10.8702 47.6485 10.8416 47.8055 10.8416L48.505 10.7703Z" fill="#292F36"/>
<path d="M57.2843 25.0306C57.4699 25.0306 57.5841 25.1734 57.6269 25.4589C57.6697 25.7444 57.684 26.0298 57.684 26.3439C57.684 26.6579 57.6555 26.8578 57.5984 26.972C57.3129 27.5144 56.6991 28.1853 55.7427 28.9704C54.7863 29.7555 53.8727 30.1552 53.0163 30.1552C52.4881 30.1552 52.0028 29.9982 51.546 29.6841C51.1035 29.3701 50.8751 28.8134 50.8751 28.0283C50.8751 27.2432 51.0892 26.4581 51.5032 25.7015C49.0765 28.742 47.1922 30.2551 45.8076 30.2551C45.2652 30.2551 44.8227 30.0553 44.4801 29.6699C44.1375 29.2844 43.9805 28.8848 43.9805 28.4565C43.9805 28.0426 44.0376 27.6143 44.1518 27.1718C44.266 26.7293 44.3944 26.3296 44.5229 25.9728C44.6514 25.6159 44.8512 25.1877 45.1081 24.6738C45.3651 24.1599 45.5649 23.7887 45.6791 23.5461C45.7933 23.3034 46.0074 22.9608 46.2929 22.4898C46.5784 22.0187 46.9353 21.3763 47.3921 20.577C47.8489 19.7776 48.22 19.1781 48.5198 18.7927C48.8195 18.4072 49.105 18.2074 49.3905 18.2074C49.676 18.2074 49.9187 18.3216 50.1328 18.55C50.3469 18.7784 50.4611 18.9782 50.4611 19.121C50.4611 19.2637 50.1328 19.9203 49.4762 21.0909C47.5491 24.5881 46.5784 26.6151 46.5784 27.2004C46.5784 27.3431 46.6355 27.4145 46.7354 27.4145C47.2065 27.4145 48.377 26.401 50.2327 24.374C52.0884 22.347 53.1733 21.048 53.473 20.4771C53.7728 19.9061 54.044 19.4207 54.3295 19.0353C54.6007 18.6499 54.8148 18.4072 54.9576 18.3216C55.3716 18.0504 55.914 17.9076 56.5849 17.8791C56.6991 17.8791 56.7705 17.8791 56.8276 17.8934C56.8846 17.9076 56.956 17.9933 57.0274 18.136C57.0988 18.2788 57.1416 18.4072 57.1416 18.5072C57.0559 18.7784 56.6705 19.5064 55.9711 20.6912C55.2859 21.876 54.9005 22.5469 54.8291 22.6896C53.6729 25.0735 53.1019 26.6294 53.1019 27.3431C53.1019 27.7571 53.2589 27.9569 53.573 27.9569C54.1439 27.8855 54.8291 27.4288 55.6285 26.6008C55.9283 26.3011 56.2138 25.987 56.4992 25.673C56.7847 25.3589 56.9703 25.1734 57.0274 25.1306C57.0988 25.0592 57.1844 25.0306 57.2843 25.0306Z" fill="#292F36"/>
<path d="M61.5235 21.6476C63.8217 19.0353 65.7916 17.7221 67.4046 17.7221C67.8043 17.7221 68.1326 17.8363 68.3896 18.0789C68.6465 18.3216 68.7749 18.6214 68.7749 19.0068C68.7749 19.3922 68.5037 20.0203 67.9613 20.9196C67.4189 21.8046 66.9193 22.5611 66.4625 23.175C66.2198 23.489 65.9486 23.646 65.6346 23.646C65.3348 23.646 65.0921 23.5318 64.9208 23.3034C64.7495 23.075 64.6639 22.8181 64.6639 22.5183C64.6639 21.8474 65.0208 21.0766 65.7488 20.2344L65.7202 20.2059C65.3919 20.2344 64.6068 20.8768 63.3221 22.1044C62.0517 23.3462 60.9668 24.4597 60.0675 25.4303C59.1825 26.4153 58.2118 27.6001 57.1555 29.0132C56.8557 29.4272 56.5988 29.6413 56.3847 29.6413C56.1705 29.6413 55.8993 29.5699 55.5567 29.4415C55.2141 29.313 55 29.2131 54.9287 29.156C54.8573 29.0989 54.8145 28.999 54.8145 28.8562C54.8145 28.7277 54.8573 28.5565 54.9287 28.3852C55 28.1996 55.157 27.9426 55.3569 27.6143C55.5567 27.286 55.885 26.7436 56.3133 26.0013C56.7415 25.259 57.3981 24.1314 58.2974 22.6325C59.1967 21.1337 59.7249 20.2201 59.9105 19.9061C60.2816 19.2637 60.5814 18.7927 60.824 18.5072C61.2666 17.9505 62.0088 17.6793 63.0509 17.6793C63.2793 17.6793 63.4077 17.822 63.4077 18.1218C63.4077 18.5786 62.9795 19.4493 62.1373 20.7055L61.5235 21.6476Z" fill="#292F36"/>
<path d="M77.2689 18.6784C77.2689 19.3208 77.0119 19.8918 76.4838 20.3771C75.9556 20.8624 75.3704 21.1051 74.6995 21.1051C74.4853 21.1051 74.3426 21.048 74.2712 20.9481C74.1998 20.8482 74.1713 20.7054 74.1713 20.5484C74.1713 20.3914 74.1856 20.2201 74.2284 20.063C73.8715 20.1772 73.4861 20.3628 73.0579 20.6055C72.6296 20.8481 72.1015 21.205 71.4734 21.6903C70.8453 22.1757 70.5313 22.5183 70.5313 22.7609C70.5313 22.8323 70.6455 22.8751 70.8739 22.8751C71.1023 22.8751 71.4591 22.7895 71.9302 22.6325C72.4012 22.4754 72.7438 22.3898 72.9294 22.3898C73.115 22.3898 73.2434 22.4041 73.3005 22.4183C73.429 22.4897 73.5575 22.6325 73.7145 22.8609C73.8572 23.0893 73.9286 23.2748 73.9286 23.4033C73.9286 23.5318 73.8002 23.7031 73.5432 23.9172C73.2863 24.1313 73.0008 24.2883 72.6867 24.4025C72.3584 24.5167 72.1443 24.6024 72.0444 24.6594C69.9889 25.8157 68.9611 26.6008 68.9611 27.029C68.9611 27.7856 69.6034 28.171 70.9024 28.171C71.7303 28.171 72.5725 27.914 73.4005 27.3859C74.1142 26.9434 74.7566 26.4866 75.3275 26.0155C75.8985 25.5587 76.2554 25.2733 76.4124 25.1591C76.5694 25.0449 76.6836 25.002 76.755 25.002C77.0119 25.002 77.1404 25.2875 77.1404 25.8585C77.1404 26.4295 77.1118 26.8006 77.0405 26.9719C76.9691 27.1575 76.7835 27.3716 76.4552 27.6428C74.3711 29.3415 72.387 30.198 70.5313 30.198C69.5321 30.198 68.747 30.0552 68.1474 29.784C67.0483 29.2844 66.5059 28.5279 66.5059 27.5001C66.5059 26.1583 67.4337 25.1305 69.3037 24.4453C68.9325 24.274 68.6899 24.0742 68.59 23.803C68.4758 23.546 68.4329 23.1321 68.4329 22.5611C68.4329 21.9901 68.7041 21.3906 69.2323 20.7482C69.7605 20.1059 70.4171 19.5777 71.1879 19.178C72.9008 18.2502 74.4425 17.7934 75.7843 17.7934C76.1126 17.7934 76.4267 17.8648 76.7693 18.0218C77.1118 18.1788 77.2689 18.3929 77.2689 18.6784Z" fill="#292F36"/>
<path d="M110.586 8.74338H110.772C110.829 8.74338 110.872 8.74338 110.886 8.75765C110.9 8.77192 110.915 8.77193 110.943 8.7862C110.972 8.7862 110.986 8.80047 111.015 8.82902C111.057 8.87185 111.129 8.91467 111.214 8.95749C111.329 9.04314 111.386 9.14306 111.386 9.25726C111.386 9.37146 111.271 9.61412 111.043 9.98526C110.815 10.3564 110.229 11.2557 109.273 12.7117C107.089 16.0519 105.133 19.1638 103.406 22.0187C100.423 26.9862 98.9098 29.4843 98.8812 29.5128C98.8527 29.5414 98.8384 29.5699 98.8241 29.5985C98.8098 29.6556 98.7813 29.6841 98.7099 29.6841L98.5101 29.6413L98.1104 29.7412L97.882 29.6984L97.6393 29.7412H97.5537L96.74 29.8554C96.2547 29.8554 96.012 29.6841 96.012 29.3558C96.012 29.2131 96.0548 29.0418 96.1405 28.8419C96.4403 28.1282 97.9676 25.5445 100.708 21.0623C98.9098 21.1051 97.1254 21.1337 95.3697 21.1337L92.2293 21.1194C91.7154 21.9473 91.0017 23.1178 90.1024 24.6452C88.161 27.9712 87.1333 29.6413 87.0048 29.6698C86.8763 29.6984 86.7764 29.7269 86.6908 29.7269C86.6051 29.7269 86.5337 29.6841 86.4766 29.5842C86.4053 29.4986 86.3624 29.4414 86.3339 29.4414C86.3053 29.4414 86.2625 29.4557 86.1769 29.4985C86.1055 29.5414 85.9913 29.5556 85.8343 29.5556L85.4917 29.5414L85.3632 29.4557C85.349 29.4557 85.3347 29.47 85.3204 29.4985C85.3061 29.5271 85.2633 29.5414 85.2062 29.5414C84.7922 29.5414 84.5781 29.3701 84.5781 29.0132C84.5781 28.7848 84.6638 28.4708 84.8208 28.0854C84.9921 27.7 85.2062 27.286 85.4774 26.8435C85.7486 26.401 86.4338 25.3304 87.5615 23.6603C88.6749 21.9901 89.2316 21.1479 89.2316 21.1337C89.046 21.1194 88.8319 21.1194 88.5893 21.1051C88.0897 21.1051 87.7471 21.0908 87.5329 21.048C86.9762 20.9481 86.5908 20.4913 86.391 19.6777C86.2768 19.278 86.234 19.021 86.2482 18.8926C86.2482 18.6356 86.3624 18.4929 86.5908 18.4929L86.9762 18.5928C87.1761 18.6071 87.6329 18.6214 88.3752 18.6642C89.1174 18.707 89.6456 18.7213 89.9739 18.7213L90.8018 18.6927C92.0723 16.7086 93.5854 14.4532 95.3554 11.9409C94.0707 12.9972 92.6432 13.5253 91.073 13.5253C90.3308 13.5253 89.6884 13.354 89.1602 12.9972C88.6178 12.6403 88.3609 12.1835 88.3609 11.6411C88.3609 11.0987 88.5607 10.6704 88.9747 10.3421C89.3886 10.0281 89.774 9.87106 90.1452 9.87106C90.5163 9.87106 90.7019 9.92816 90.7019 10.0424C90.7019 10.0852 90.6448 10.128 90.5449 10.1708C90.4449 10.2279 90.3878 10.2708 90.3878 10.3136C90.3878 10.4706 90.5591 10.6133 90.9017 10.7275C91.2443 10.8417 91.6297 10.9131 92.058 10.9131C92.4862 10.9131 93.0001 10.7846 93.6282 10.542C94.2563 10.2993 94.8986 9.97099 95.5695 9.58557C96.5116 9.04314 97.2539 8.58635 97.7963 8.22949C98.1104 8.07247 98.3959 8.0011 98.6814 8.0011C98.9669 8.0011 99.1524 8.02965 99.2809 8.10102C99.4094 8.15812 99.495 8.22949 99.5521 8.28659C99.6092 8.34369 99.6806 8.42934 99.7377 8.52926C99.809 8.62918 99.8661 8.71483 99.9375 8.75765C99.9946 8.81475 100.037 8.87185 100.037 8.94322C100.037 9.01459 99.9946 9.11451 99.9233 9.27153C99.8519 9.41428 99.4807 10.0138 98.8098 11.0559C98.1389 12.0979 97.2682 13.4254 96.2119 15.0384C95.1555 16.6515 94.3847 17.8363 93.8994 18.6071C96.5116 18.6071 99.3237 18.5643 102.35 18.4643C106.033 12.6546 107.974 9.61412 108.174 9.32863C108.374 9.04314 108.559 8.85757 108.731 8.77192C108.902 8.68628 109.102 8.64345 109.344 8.64345L110.586 8.74338Z" fill="#292F36"/>
<path d="M115.354 18.4786C115.653 18.4786 115.953 18.6071 116.253 18.8783C116.567 19.1495 116.71 19.5492 116.71 20.0916C116.71 20.634 116.524 21.3335 116.139 22.2042C115.753 23.0607 115.239 23.9457 114.568 24.845C113.912 25.7301 113.17 26.5723 112.384 27.3574C111.585 28.1425 110.729 28.7848 109.815 29.2844C108.887 29.784 108.059 30.041 107.303 30.041C106.546 30.041 105.947 29.7983 105.49 29.3272C105.033 28.8562 104.805 28.1995 104.805 27.3574C104.805 26.5152 105.019 25.573 105.433 24.5595C105.847 23.5318 106.375 22.6325 107.032 21.8474C107.688 21.0623 108.388 20.3628 109.158 19.7347C110.743 18.45 112.142 17.822 113.341 17.822C113.883 17.822 114.283 17.9504 114.554 18.2217C114.654 18.3073 114.697 18.3929 114.697 18.45V18.5357C114.854 18.4786 115.068 18.4786 115.354 18.4786ZM113.883 20.4199H113.783C113.441 20.4199 113.269 20.1773 113.269 19.6777C112.556 19.906 111.813 20.32 111.028 20.9053C110.243 21.4905 109.544 22.19 108.93 22.9893C107.674 24.5881 107.046 25.9442 107.032 27.0433C107.032 27.5857 107.231 27.857 107.631 27.857C108.031 27.857 108.63 27.5857 109.415 27.0719C110.2 26.558 110.986 25.8014 111.771 24.8165C112.541 23.8458 113.127 22.9893 113.512 22.2756C113.898 21.5619 114.097 21.0766 114.097 20.8053C114.083 20.5484 114.012 20.4199 113.883 20.4199Z" fill="#292F36"/>
<path d="M116.395 29.7126L115.681 29.6841H115.424C115.324 29.6555 115.224 29.5984 115.11 29.5128C114.996 29.4271 114.91 29.3558 114.853 29.3272C114.796 29.2987 114.768 29.213 114.768 29.1131C114.768 29.0132 114.81 28.8276 114.882 28.5849C116.78 24.4025 118.622 21.048 120.406 18.5499C120.606 18.2787 120.92 18.0646 121.348 17.9218C121.776 17.7791 122.205 17.7077 122.619 17.7077C122.861 17.7077 122.99 17.8933 122.99 18.2787C122.99 18.3929 122.947 18.5357 122.876 18.707C122.804 18.8925 122.604 19.178 122.29 19.592C121.976 20.0059 121.605 20.477 121.177 20.9909C120.749 21.5048 120.506 21.8188 120.449 21.9044C121.791 20.5198 122.99 19.4921 124.075 18.8069C125.159 18.136 125.93 17.7934 126.416 17.7934C126.901 17.7934 127.272 17.9361 127.529 18.2073C127.786 18.4786 127.914 18.7783 127.914 19.0924C127.914 19.4064 127.886 19.6776 127.843 19.8775C127.8 20.0916 127.715 20.3057 127.6 20.5341C127.486 20.7625 127.386 20.9623 127.301 21.1193C127.215 21.2764 127.072 21.4905 126.887 21.7474C126.687 22.0044 126.558 22.1899 126.487 22.2899C126.416 22.3898 126.259 22.5753 126.03 22.8466C125.802 23.1178 125.673 23.2748 125.659 23.3033C125.93 23.0321 126.316 22.6324 126.801 22.09C127.286 21.5476 127.7 21.1051 128.043 20.7482C128.385 20.3913 128.799 19.9774 129.313 19.5206C129.827 19.0638 130.298 18.6927 130.727 18.4215C131.783 17.7648 132.853 17.4222 133.938 17.4222C134.309 17.4222 134.623 17.5364 134.88 17.7791C135.137 18.0218 135.266 18.293 135.266 18.6213C135.266 18.9496 134.866 19.7347 134.081 20.9623C133.296 22.1899 132.497 23.4318 131.711 24.6737C130.926 25.9156 130.527 26.7007 130.527 27.029C130.527 27.4715 130.612 27.7427 130.769 27.8284C130.941 27.914 131.14 27.9426 131.369 27.9283C131.597 27.914 131.94 27.757 132.354 27.4715C132.782 27.186 133.153 26.9005 133.481 26.5865C134.024 26.1012 134.509 25.6301 134.98 25.1733C135.08 25.0877 135.18 25.0448 135.309 25.0448C135.494 25.0448 135.608 25.1876 135.651 25.4731C135.694 25.7586 135.708 26.0441 135.708 26.3581C135.708 26.6721 135.68 26.872 135.623 26.9862C135.337 27.5286 134.709 28.1995 133.753 28.9989C132.782 29.784 131.854 30.1837 130.969 30.1837C130.855 30.1837 130.784 30.1837 130.741 30.1694C129.742 30.0695 129.042 29.7983 128.657 29.3415C128.271 28.8847 128.086 28.3423 128.086 27.7285C128.086 27.1147 128.3 26.3438 128.728 25.4588C129.156 24.5738 129.613 23.7601 130.127 23.0464C130.641 22.3327 131.098 21.6761 131.526 21.0908C131.954 20.5055 132.168 20.1915 132.168 20.1487C132.168 20.1059 132.125 20.0773 132.054 20.0773C131.754 20.0773 131.083 20.5626 130.027 21.5476C128.243 23.2177 126.701 24.8307 125.402 26.3724C125.06 26.7863 124.246 27.8141 122.975 29.4842C122.833 29.6841 122.59 29.784 122.276 29.784C121.962 29.784 121.634 29.7269 121.291 29.5984C120.948 29.4699 120.777 29.3129 120.777 29.1274C120.777 29.0274 121.548 27.6571 123.104 25.0163C124.66 22.3755 125.431 20.9338 125.431 20.7054C125.431 20.4627 125.288 20.3485 125.002 20.3485C124.717 20.3485 124.117 20.7768 123.218 21.6332C120.749 23.9885 118.836 26.3438 117.48 28.6706C117.394 28.8133 117.223 29.0274 116.966 29.3129C116.709 29.5984 116.481 29.7126 116.395 29.7126Z" fill="#292F36"/>
<path d="M144.702 18.6784C144.702 19.3208 144.445 19.8918 143.917 20.3771C143.389 20.8624 142.804 21.1051 142.133 21.1051C141.919 21.1051 141.776 21.048 141.705 20.9481C141.633 20.8482 141.605 20.7054 141.605 20.5484C141.605 20.3914 141.619 20.2201 141.662 20.063C141.305 20.1772 140.92 20.3628 140.491 20.6055C140.063 20.8481 139.535 21.205 138.907 21.6903C138.279 22.1757 137.965 22.5183 137.965 22.7609C137.965 22.8323 138.079 22.8751 138.307 22.8751C138.536 22.8751 138.893 22.7895 139.364 22.6325C139.835 22.4754 140.177 22.3898 140.363 22.3898C140.549 22.3898 140.677 22.4041 140.734 22.4183C140.863 22.4897 140.991 22.6325 141.148 22.8609C141.291 23.0893 141.362 23.2748 141.362 23.4033C141.362 23.5318 141.234 23.7031 140.977 23.9172C140.72 24.1313 140.434 24.2883 140.12 24.4025C139.792 24.5167 139.578 24.6024 139.478 24.6594C137.422 25.8157 136.395 26.6008 136.395 27.029C136.395 27.7856 137.037 28.171 138.336 28.171C139.164 28.171 140.006 27.914 140.834 27.3859C141.548 26.9434 142.19 26.4866 142.761 26.0155C143.332 25.5587 143.689 25.2733 143.846 25.1591C144.003 25.0449 144.117 25.002 144.189 25.002C144.446 25.002 144.574 25.2875 144.574 25.8585C144.574 26.4295 144.545 26.8006 144.474 26.9719C144.403 27.1575 144.217 27.3716 143.889 27.6428C141.805 29.3415 139.821 30.198 137.965 30.198C136.966 30.198 136.181 30.0552 135.581 29.784C134.482 29.2844 133.939 28.5279 133.939 27.5001C133.939 26.1583 134.867 25.1305 136.737 24.4453C136.366 24.274 136.123 24.0742 136.024 23.803C135.909 23.546 135.867 23.1321 135.867 22.5611C135.867 21.9901 136.138 21.3906 136.666 20.7482C137.194 20.1059 137.851 19.5777 138.621 19.178C140.334 18.2502 141.876 17.7934 143.218 17.7934C143.546 17.7934 143.86 17.8648 144.203 18.0218C144.545 18.1788 144.702 18.3929 144.702 18.6784Z" fill="#292F36"/>
<path d="M0 33.6666C3.7542 35.2368 7.57977 36.4502 11.4767 37.378C15.3451 38.3487 19.2849 39.0339 23.2247 39.4621C25.1946 39.7333 27.1787 39.7619 29.1343 39.9474C31.1185 39.9617 33.0884 40.1187 35.0583 40.0045L38.0131 39.9332C38.998 39.9189 39.983 39.7904 40.9679 39.7333C41.9529 39.6477 42.9378 39.6048 43.9085 39.4764L46.8347 39.0624C50.7602 38.6342 54.5715 37.7206 58.3686 36.6215C62.2084 35.5651 65.8342 34.1662 69.674 32.7102C73.5995 31.2685 77.8533 30.3264 82.1642 30.7832C84.2911 31.0544 86.4323 31.7396 88.1738 32.9957C89.9296 34.2376 91.1857 36.0077 91.9851 37.8633C90.786 36.2075 89.2872 34.8514 87.56 34.0092C85.8328 33.167 83.9343 32.8244 82.05 32.8815C78.2387 32.9386 74.4845 34.2091 70.9587 35.8078C67.3758 37.5779 63.4931 39.1766 59.5819 40.5041C55.6421 41.7746 51.5739 42.7881 47.4485 43.3019C39.2407 44.3868 30.833 44.4011 22.7251 42.7595C18.6568 42.0172 14.6885 40.861 10.8486 39.3907C7.03733 37.8633 3.31169 36.079 0 33.6666Z" fill="#292F36"/>
<path d="M136.507 9.89958C133.324 8.5435 130.083 7.48718 126.8 6.65926C123.531 5.78851 120.219 5.17471 116.894 4.74648C115.238 4.48953 113.553 4.43244 111.897 4.23259C110.227 4.18977 108.571 4.01847 106.901 4.08985C106.073 4.10412 105.231 4.10412 104.403 4.08985C103.575 4.08985 102.733 4.17549 101.905 4.20404C101.077 4.26114 100.235 4.27542 99.4072 4.36106L96.9234 4.66083C93.5975 4.93204 90.3714 5.61722 87.1454 6.45942C83.8765 7.24452 80.7789 8.35793 77.4815 9.47135C74.0985 10.599 70.4299 11.2842 66.7471 10.7703C64.9342 10.4706 63.1071 9.82821 61.6653 8.68624C60.1951 7.55856 59.1958 6.01691 58.582 4.40388C59.5955 5.81706 60.8517 6.9733 62.2934 7.68703C63.7351 8.40076 65.3196 8.70052 66.9041 8.68624C70.1016 8.68624 73.2705 7.65848 76.2682 6.37377C79.3229 4.91777 82.6774 3.63306 86.0177 2.57675C89.3865 1.56325 92.898 0.792428 96.4095 0.421291C103.418 -0.320985 110.584 -0.149691 117.45 1.47761C120.89 2.20561 124.245 3.31902 127.457 4.68938C130.683 6.08828 133.795 7.71558 136.507 9.89958Z" fill="#292F36"/>
</svg>
