<svg width="16" height="16" viewBox="0 0 16 16" fill="none" xmlns="http://www.w3.org/2000/svg">
<path d="M3.51562 15.7148V5.20312H0.246094V15.7148H3.51562ZM1.86328 3.79688C2.91797 3.79688 3.76172 2.91797 3.76172 1.86328C3.76172 0.84375 2.91797 0 1.86328 0C0.84375 0 0 0.84375 0 1.86328C0 2.91797 0.84375 3.79688 1.86328 3.79688ZM15.7148 15.7148H15.75V9.94922C15.75 7.13672 15.1172 4.95703 11.8125 4.95703C10.2305 4.95703 9.17578 5.83594 8.71875 6.64453H8.68359V5.20312H5.55469V15.7148H8.82422V10.5117C8.82422 9.14062 9.07031 7.83984 10.7578 7.83984C12.4453 7.83984 12.4805 9.38672 12.4805 10.6172V15.7148H15.7148Z" fill="#292F36"/>
</svg>
