<svg width="117" height="48" viewBox="0 0 117 48" fill="none" xmlns="http://www.w3.org/2000/svg">
<path d="M0 29.2057V0H17.2008V29.1914H0V29.2057ZM15.1168 22.411L15.5593 19.185L13.9605 19.028L13.4752 21.5117C12.4759 22.0113 11.2483 22.254 9.77807 22.254C7.77963 22.254 6.19515 21.6259 5.03891 20.3555C3.8684 19.0851 3.29741 17.4149 3.29741 15.3309C3.29741 13.3039 3.8684 11.6337 4.99609 10.3205C6.12378 9.00723 7.60836 8.3506 9.44978 8.3506C10.3919 8.3506 11.1912 8.4648 11.8336 8.67892C12.476 8.89303 13.0612 9.17853 13.6179 9.54966L14.089 12.0049L15.7163 11.8479L15.2452 8.62182C14.5601 8.03656 13.7464 7.56551 12.8043 7.19437C11.8621 6.8375 10.6917 6.65193 9.30703 6.65193C7.66545 6.65193 6.25227 7.05162 5.06749 7.86527C3.8827 8.67892 2.95485 9.74951 2.29822 11.077C1.64159 12.4188 1.31328 13.8606 1.31328 15.4022C1.31328 17.8432 2.06982 19.8844 3.58292 21.5117C5.09602 23.139 7.0659 23.9527 9.50685 23.9527C11.905 23.9527 13.775 23.4388 15.1168 22.411Z" fill="#292F36"/>
<path d="M23.0391 29.2057V0H30.4333V29.1914H23.0391V29.2057ZM23.8241 23.6957H29.6624V22.2255H27.6498V5.92393H23.7956V7.39421H25.8369V22.2255H23.8241V23.6957Z" fill="#292F36"/>
<path d="M36.2715 29.2057V0H49.2613V29.1914H36.2715V29.2057ZM38.6268 13.0755L38.2128 15.7305L39.7117 15.9161L40.1542 13.9319C40.7965 13.6179 41.5245 13.4609 42.381 13.4609C43.4088 13.4609 44.1082 13.7178 44.4651 14.2317C44.822 14.7456 44.9932 15.4165 44.9932 16.2444V17.2722C44.6792 17.2436 44.3509 17.2151 43.994 17.2008C43.6371 17.1865 43.2946 17.1723 42.952 17.1723C41.6673 17.1723 40.4396 17.4007 39.2977 17.8574C38.1557 18.3142 37.5848 19.2706 37.5848 20.7124C37.5848 21.94 37.9702 22.7822 38.7553 23.2389C39.5404 23.71 40.3112 23.9384 41.0678 23.9384C41.9956 23.9384 42.7949 23.6957 43.4516 23.2104C44.1082 22.7251 44.6221 22.1826 44.9932 21.5545V21.6116C45.0218 23.1676 45.7213 23.9384 47.0916 23.9384C47.6198 23.9384 48.1194 23.8099 48.5904 23.553L48.5619 22.3682C48.3335 22.4681 48.0765 22.5252 47.791 22.5252C47.1344 22.5252 46.8061 22.1113 46.8061 21.2833V15.8162C46.8061 13.2468 45.4357 11.9621 42.695 11.9621C41.9385 11.9621 41.2247 12.0477 40.5538 12.219C39.8687 12.4046 39.2263 12.6901 38.6268 13.0755ZM44.979 19.3848C44.9076 20.3269 44.5222 21.0835 43.8227 21.6259C43.1233 22.1826 42.381 22.4538 41.5816 22.4538C41.082 22.4538 40.5967 22.3111 40.1399 22.0399C39.6689 21.7687 39.4404 21.2548 39.4404 20.5125C39.4404 19.6132 39.7973 19.0422 40.4825 18.771C41.1819 18.4998 41.9527 18.3713 42.8235 18.3713C43.2089 18.3713 43.58 18.3856 43.9369 18.4284C44.2938 18.457 44.6506 18.4855 44.9647 18.4998V19.3848H44.979Z" fill="#292F36"/>
<path d="M55.1133 29.2057V0H66.9183V29.1914H55.1133V29.2057ZM65.6764 20.3698C65.6764 19.4562 65.4337 18.7853 64.9484 18.3428C64.4631 17.9003 63.8778 17.6005 63.1641 17.4292C62.4504 17.2579 61.7509 17.1152 61.0515 17.001C60.352 16.8868 59.7525 16.7012 59.2672 16.4585C58.7818 16.2159 58.5392 15.7876 58.5392 15.1738C58.5392 14.5886 58.7675 14.1603 59.2386 13.8749C59.7097 13.5894 60.2949 13.4609 61.0229 13.4609C61.8651 13.4609 62.6502 13.6465 63.3782 14.0319L63.6638 15.8876L65.1626 15.702L64.8771 13.0184C64.3917 12.7186 63.8065 12.4759 63.107 12.2761C62.4076 12.0763 61.6653 11.9621 60.8659 11.9621C59.8096 11.9621 58.839 12.219 57.9397 12.7186C57.0404 13.2182 56.5978 14.0747 56.5978 15.3023C56.5978 16.2016 56.8405 16.8582 57.3258 17.2722C57.8112 17.7004 58.4107 17.9859 59.1387 18.1572C59.8667 18.3285 60.5804 18.4712 61.2941 18.5997C62.0079 18.7139 62.6074 18.9138 63.0927 19.1707C63.5781 19.4276 63.8208 19.8702 63.8208 20.5125C63.8208 21.1691 63.5067 21.6545 62.8786 21.9685C62.2505 22.2826 61.5368 22.4396 60.7232 22.4396C59.8096 22.4396 58.9531 22.254 58.168 21.8686L58.2394 20.3412L56.7977 20.1842L56.4408 22.7964C56.9404 23.1247 57.597 23.396 58.3964 23.6101C59.1958 23.8242 59.9952 23.9384 60.8088 23.9384C62.1934 23.9384 63.3497 23.6244 64.2776 22.982C65.2054 22.3682 65.6764 21.4832 65.6764 20.3698Z" fill="#292F36"/>
<path d="M72.7578 29.2057V0H84.5628V29.1914H72.7578V29.2057ZM83.3209 20.3698C83.3209 19.4562 83.0782 18.7853 82.5929 18.3428C82.1076 17.9003 81.5223 17.6005 80.8086 17.4292C80.0949 17.2579 79.3954 17.1152 78.696 17.001C77.9965 16.8868 77.397 16.7012 76.9117 16.4585C76.4263 16.2159 76.1836 15.7876 76.1836 15.1738C76.1836 14.5886 76.412 14.1603 76.8831 13.8749C77.3541 13.5894 77.9394 13.4609 78.6674 13.4609C79.5096 13.4609 80.2947 13.6465 81.0227 14.0319L81.3082 15.8876L82.8071 15.702L82.5215 13.0184C82.0362 12.7186 81.451 12.4759 80.7515 12.2761C80.0521 12.0763 79.3098 11.9621 78.5104 11.9621C77.4541 11.9621 76.4834 12.219 75.5841 12.7186C74.6848 13.2182 74.2423 14.0747 74.2423 15.3023C74.2423 16.2016 74.485 16.8582 74.9703 17.2722C75.4557 17.7004 76.0552 17.9859 76.7832 18.1572C77.5112 18.3285 78.2249 18.4712 78.9386 18.5997C79.6524 18.7139 80.2519 18.9138 80.7372 19.1707C81.2226 19.4276 81.4652 19.8702 81.4652 20.5125C81.4652 21.1691 81.1512 21.6545 80.5232 21.9685C79.8951 22.2826 79.1813 22.4396 78.3677 22.4396C77.4541 22.4396 76.5976 22.254 75.8125 21.8686L75.8839 20.3412L74.4422 20.1842L74.0853 22.7964C74.5849 23.1247 75.2416 23.396 76.0409 23.6101C76.8403 23.8242 77.6397 23.9384 78.4533 23.9384C79.838 23.9384 80.9942 23.6244 81.922 22.982C82.8499 22.3682 83.3209 21.4832 83.3209 20.3698Z" fill="#292F36"/>
<path d="M90.4004 29.2057V0H98.18V29.1914H90.4004V29.2057ZM91.5423 23.6957H97.3807V22.2255H95.3679V12.2047H91.4996V13.675H93.5693V22.2255H91.5566V23.6957H91.5423ZM93.3695 6.88033V9.23563H95.3394V6.88033H93.3695Z" fill="#292F36"/>
<path d="M104.02 29.2057V0H116.453V29.1914H104.02V29.2057ZM115.339 19.8273L113.783 19.4847C113.441 21.4261 112.399 22.3967 110.686 22.3967C109.544 22.3967 108.673 22.0113 108.074 21.2405C107.474 20.4697 107.174 19.3848 107.174 18.0145C107.174 16.7726 107.445 15.7163 107.974 14.8312C108.502 13.9462 109.387 13.518 110.614 13.518C111.556 13.518 112.384 13.7321 113.07 14.1603L113.512 16.1017L115.011 15.9161L114.568 13.1468C113.983 12.7043 113.369 12.3903 112.727 12.219C112.085 12.0477 111.385 11.9621 110.629 11.9621C108.844 11.9621 107.488 12.5901 106.603 13.8463C105.704 15.1025 105.261 16.5299 105.261 18.1144C105.261 19.9558 105.732 21.3975 106.689 22.411C107.631 23.4388 108.901 23.9527 110.486 23.9527C112.07 23.9527 113.241 23.5102 113.983 22.6394C114.725 21.7544 115.182 20.8265 115.339 19.8273Z" fill="#292F36"/>
<path d="M7.43708 45.1503C7.10877 45.7498 6.62342 46.2209 5.99534 46.5492C5.35298 46.8775 4.59643 47.0488 3.7114 47.0488H1.15625V38.998H3.7114C4.59643 38.998 5.36726 39.155 5.99534 39.4833C6.62342 39.8116 7.10877 40.2684 7.43708 40.8822C7.76539 41.496 7.92241 42.1955 7.92241 43.0234C7.92241 43.8371 7.76539 44.5508 7.43708 45.1503ZM6.02387 45.3073C6.58058 44.7649 6.85182 44.0083 6.85182 43.0234C6.85182 42.0385 6.58058 41.2819 6.02387 40.7395C5.46716 40.197 4.66779 39.9258 3.61147 39.9258H2.16977V46.121H3.61147C4.66779 46.121 5.46716 45.8498 6.02387 45.3073Z" fill="#292F36"/>
<path d="M13.2178 39.8402V42.5952H16.2726V43.3945H13.2178V46.2066H16.6152V47.0488H12.1758V38.998H16.6152V39.8402H13.2178Z" fill="#292F36"/>
<path d="M25.6364 46.0211C25.4508 46.3494 25.1796 46.6207 24.8085 46.8205C24.4373 47.0204 23.9805 47.1346 23.4238 47.1346C22.8957 47.1346 22.4103 47.0346 21.9964 46.8491C21.5824 46.6492 21.2541 46.3923 20.9972 46.0497C20.7545 45.7071 20.6118 45.3217 20.5689 44.8934H21.6823C21.7109 45.1218 21.7823 45.3502 21.9107 45.5643C22.0392 45.7785 22.239 45.964 22.4817 46.1068C22.7244 46.2495 23.0242 46.3209 23.381 46.3209C23.8378 46.3209 24.1947 46.2067 24.4374 45.9498C24.68 45.6928 24.8085 45.3931 24.8085 45.0076C24.8085 44.6793 24.7228 44.4081 24.5515 44.2083C24.3802 44.0084 24.1661 43.8371 23.9235 43.7229C23.6808 43.6087 23.3239 43.4803 22.8957 43.3375C22.3818 43.1662 21.9821 43.0092 21.6681 42.8665C21.3541 42.7237 21.0971 42.4953 20.883 42.1956C20.6689 41.8958 20.5547 41.5104 20.5547 41.025C20.5547 40.6111 20.6546 40.2399 20.8544 39.9116C21.0543 39.5976 21.3398 39.3407 21.7252 39.1694C22.0963 38.9981 22.5531 38.9124 23.0527 38.9124C23.8378 38.9124 24.4802 39.098 24.9369 39.4834C25.408 39.8688 25.6649 40.3541 25.7506 40.9537H24.6372C24.5801 40.6396 24.4088 40.3541 24.1519 40.1115C23.8806 39.8688 23.5238 39.7403 23.067 39.7403C22.653 39.7403 22.3105 39.8545 22.0678 40.0687C21.8108 40.2828 21.6966 40.5968 21.6966 40.9822C21.6966 41.2963 21.7823 41.5532 21.9393 41.7388C22.1106 41.9386 22.3104 42.0814 22.5531 42.1956C22.7958 42.3098 23.1383 42.424 23.5523 42.5667C24.0662 42.738 24.4802 42.895 24.8085 43.052C25.1225 43.2091 25.3937 43.4374 25.6078 43.7372C25.822 44.037 25.9362 44.4509 25.9362 44.9648C25.9076 45.336 25.822 45.6928 25.6364 46.0211Z" fill="#292F36"/>
<path d="M31.2042 38.998V47.0488H30.1621V38.998H31.2042Z" fill="#292F36"/>
<path d="M41.7397 39.6119C42.382 40.083 42.8102 40.711 43.0244 41.5104H41.9252C41.7397 41.0251 41.4113 40.6254 40.9688 40.3399C40.5263 40.0401 39.9982 39.8974 39.3844 39.8974C38.8419 39.8974 38.3423 40.0259 37.9141 40.2828C37.4858 40.5397 37.1433 40.8966 36.8863 41.3677C36.6437 41.8387 36.5152 42.3954 36.5152 43.0378C36.5152 43.6944 36.6437 44.2654 36.8863 44.7365C37.129 45.2075 37.4858 45.5787 37.9283 45.8356C38.3709 46.0925 38.8848 46.221 39.47 46.221C39.9696 46.221 40.4121 46.1068 40.8261 45.907C41.24 45.6928 41.5683 45.3788 41.8396 44.9791C42.1108 44.5794 42.2535 44.0941 42.3106 43.5517H39.1417V42.7808H43.1814V43.7372C43.11 44.3796 42.9102 44.9506 42.5819 45.4787C42.2535 46.0069 41.811 46.4066 41.2543 46.7063C40.6976 47.0061 40.0695 47.1631 39.3558 47.1631C38.585 47.1631 37.8998 46.9918 37.3003 46.6492C36.7007 46.3067 36.2439 45.8213 35.9156 45.1932C35.5873 44.5794 35.416 43.8657 35.416 43.0663C35.416 42.267 35.5873 41.5532 35.9156 40.9394C36.2439 40.3256 36.715 39.826 37.3003 39.4834C37.8855 39.1408 38.5707 38.9553 39.3415 38.9553C40.3122 38.9267 41.0973 39.1551 41.7397 39.6119Z" fill="#292F36"/>
<path d="M53.7157 47.0488H52.6737L48.4912 40.6824V47.0488H47.4492V38.998H48.4912L52.6737 45.3644V38.998H53.7157V47.0488Z" fill="#292F36"/>
<path d="M68.7321 46.0211C68.5466 46.3494 68.2753 46.6207 67.9042 46.8205C67.533 47.0204 67.0763 47.1346 66.5196 47.1346C65.9914 47.1346 65.5061 47.0346 65.0921 46.8491C64.6782 46.6492 64.3498 46.3923 64.0929 46.0497C63.8502 45.7071 63.7075 45.3217 63.6647 44.8934H64.778C64.8066 45.1218 64.878 45.3502 65.0065 45.5643C65.135 45.7785 65.3348 45.964 65.5774 46.1068C65.8201 46.2495 66.1199 46.3209 66.4767 46.3209C66.9335 46.3209 67.2904 46.2067 67.533 45.9498C67.7757 45.6928 67.9042 45.3931 67.9042 45.0076C67.9042 44.6793 67.8185 44.4081 67.6472 44.2083C67.4759 44.0084 67.2618 43.8371 67.0192 43.7229C66.7765 43.6087 66.4197 43.4803 65.9914 43.3375C65.4776 43.1662 65.0778 43.0092 64.7638 42.8665C64.4497 42.7237 64.1928 42.4953 63.9787 42.1956C63.7646 41.8958 63.6504 41.5104 63.6504 41.025C63.6504 40.6111 63.7503 40.2399 63.9501 39.9116C64.1499 39.5976 64.4355 39.3407 64.8209 39.1694C65.1921 38.9981 65.6488 38.9124 66.1484 38.9124C66.9335 38.9124 67.5759 39.098 68.0327 39.4834C68.5037 39.8688 68.7607 40.3541 68.8463 40.9537H67.7329C67.6758 40.6396 67.5045 40.3541 67.2475 40.1115C66.9763 39.8688 66.6195 39.7403 66.1627 39.7403C65.7488 39.7403 65.4062 39.8545 65.1635 40.0687C64.9065 40.2828 64.7923 40.5968 64.7923 40.9822C64.7923 41.2963 64.878 41.5532 65.035 41.7388C65.2063 41.9386 65.4061 42.0814 65.6488 42.1956C65.8914 42.3098 66.234 42.424 66.648 42.5667C67.1619 42.738 67.5759 42.895 67.9042 43.052C68.2182 43.2091 68.4894 43.4374 68.7035 43.7372C68.9177 44.037 69.0318 44.4509 69.0318 44.9648C69.0033 45.336 68.9177 45.6928 68.7321 46.0211Z" fill="#292F36"/>
<path d="M78.1953 38.998V39.8402H75.9256V47.0488H74.8693V39.8402H72.5996V38.998H78.1953Z" fill="#292F36"/>
<path d="M83.0486 38.998V43.8228C83.0486 44.6079 83.2199 45.1931 83.5767 45.5785C83.9336 45.9497 84.4047 46.1495 85.0328 46.1495C85.6466 46.1495 86.1176 45.964 86.4602 45.5785C86.8028 45.1931 86.9741 44.6222 86.9741 43.8371V39.0123H88.0162V43.8371C88.0162 44.9362 87.745 45.7641 87.2025 46.3065C86.6601 46.8633 85.9321 47.1345 85.0185 47.1345C84.1192 47.1345 83.3912 46.8633 82.8488 46.3065C82.3064 45.7498 82.0352 44.9362 82.0352 43.8371V39.0123H83.0486V38.998Z" fill="#292F36"/>
<path d="M98.7651 45.1503C98.4368 45.7498 97.9515 46.2209 97.3234 46.5492C96.681 46.8775 95.9245 47.0488 95.0395 47.0488H92.4844V38.998H95.0395C95.9245 38.998 96.6953 39.155 97.3234 39.4833C97.9515 39.8116 98.4368 40.2684 98.7651 40.8822C99.0934 41.496 99.2505 42.1955 99.2505 43.0234C99.2505 43.8371 99.0934 44.5508 98.7651 45.1503ZM97.3662 45.3073C97.9229 44.7649 98.1942 44.0083 98.1942 43.0234C98.1942 42.0385 97.9229 41.2819 97.3662 40.7395C96.8095 40.197 96.0102 39.9258 94.9538 39.9258H93.5121V46.121H94.9538C95.9959 46.121 96.8095 45.8498 97.3662 45.3073Z" fill="#292F36"/>
<path d="M104.562 38.998V47.0488H103.52V38.998H104.562Z" fill="#292F36"/>
<path d="M114.782 39.4263C115.381 39.7832 115.852 40.2685 116.195 40.8966C116.538 41.5246 116.709 42.2384 116.709 43.0235C116.709 43.8086 116.538 44.5223 116.195 45.1504C115.852 45.7785 115.381 46.2638 114.782 46.6207C114.182 46.9775 113.511 47.1488 112.769 47.1488C112.027 47.1488 111.342 46.9775 110.742 46.6207C110.143 46.2638 109.657 45.7785 109.315 45.1504C108.972 44.5223 108.801 43.8086 108.801 43.0235C108.801 42.2384 108.972 41.5246 109.315 40.8966C109.657 40.2685 110.128 39.7832 110.742 39.4263C111.356 39.0694 112.027 38.8981 112.769 38.8981C113.511 38.8981 114.182 39.0694 114.782 39.4263ZM111.27 40.2542C110.828 40.5112 110.485 40.868 110.243 41.3533C110 41.8244 109.871 42.3811 109.871 43.0235C109.871 43.6516 110 44.2083 110.243 44.6936C110.485 45.1789 110.828 45.5358 111.27 45.7927C111.713 46.0497 112.198 46.1781 112.755 46.1781C113.297 46.1781 113.797 46.0497 114.239 45.7927C114.682 45.5358 115.024 45.1647 115.267 44.6936C115.51 44.2225 115.638 43.6658 115.638 43.0377C115.638 42.3954 115.51 41.8387 115.267 41.3676C115.024 40.8966 114.682 40.5254 114.239 40.2685C113.797 40.0115 113.311 39.8831 112.755 39.8831C112.212 39.8688 111.713 39.9973 111.27 40.2542Z" fill="#292F36"/>
</svg>
